<?xml version="1.0" encoding="UTF-8"?>
<svg id="_物件_文字" data-name="物件＆文字" xmlns="http://www.w3.org/2000/svg" xmlns:xlink="http://www.w3.org/1999/xlink" viewBox="0 0 120 120">
  <defs>
    <style>
      .cls-1 {
        fill: url(#_未命名漸層_9);
      }

      .cls-2 {
        fill: #f01d1d;
      }

      .cls-3 {
        fill: #ffce00;
      }

      .cls-4 {
        filter: url(#drop-shadow-142);
      }

      .cls-5 {
        fill: none;
        stroke: #fff;
        stroke-linecap: round;
        stroke-linejoin: round;
        stroke-width: 2.37px;
      }
    </style>
    <filter id="drop-shadow-142" x="1.72" y="1.35" width="123" height="123" filterUnits="userSpaceOnUse">
      <feOffset dx="3" dy="3"/>
      <feGaussianBlur result="blur" stdDeviation="4"/>
      <feFlood flood-color="#000" flood-opacity=".5"/>
      <feComposite in2="blur" operator="in"/>
      <feComposite in="SourceGraphic"/>
    </filter>
    <linearGradient id="_未命名漸層_9" data-name="未命名漸層 9" x1="21.42" y1="60" x2="98.58" y2="60" gradientUnits="userSpaceOnUse">
      <stop offset="0" stop-color="#fff" stop-opacity=".1"/>
      <stop offset="1" stop-color="#fff" stop-opacity=".3"/>
    </linearGradient>
  </defs>
  <g class="cls-4">
    <g>
      <path class="cls-2" d="M60,107c-25.92,0-47-21.08-47-47S34.08,13,60,13s47,21.08,47,47-21.08,47-47,47Z"/>
      <path class="cls-3" d="M60,15c24.85,0,45,20.15,45,45s-20.15,45-45,45S15,84.85,15,60,35.15,15,60,15M60,11c-27.02,0-49,21.98-49,49s21.98,49,49,49,49-21.98,49-49S87.02,11,60,11h0Z"/>
    </g>
    <g>
      <path class="cls-1" d="M98.58,60c0,9.12-3.17,17.5-8.46,24.11-3.79,4.72-8.66,8.54-14.24,11.06-4.84,2.19-10.22,3.41-15.88,3.41-21.3,0-38.58-17.27-38.58-38.58,0-4.3.7-8.43,2-12.29,5.13-15.28,19.57-26.29,36.58-26.29,21.3,0,38.58,17.27,38.58,38.58Z"/>
      <path class="cls-5" d="M94.87,76.52c-1.63,3.44-3.76,6.6-6.29,9.39-4.15,4.58-9.39,8.15-15.31,10.32"/>
      <path class="cls-5" d="M26.45,40.95c4.09-7.19,10.42-12.93,18.05-16.28"/>
      <path class="cls-5" d="M21.42,60c0-3.71.52-7.3,1.5-10.69"/>
    </g>
  </g>
</svg>