<?xml version="1.0" encoding="UTF-8"?>
<svg id="_物件_文字" data-name="物件＆文字" xmlns="http://www.w3.org/2000/svg" xmlns:xlink="http://www.w3.org/1999/xlink" viewBox="0 0 135 215">
  <defs>
    <style>
      .cls-1 {
        fill: #fcc016;
      }

      .cls-2 {
        clip-path: url(#clippath-4);
      }

      .cls-3, .cls-4 {
        fill: #fff;
      }

      .cls-5 {
        fill: #ea8500;
      }

      .cls-6 {
        fill: #23abd3;
      }

      .cls-7 {
        stroke: #6b4219;
        stroke-width: 4.09px;
      }

      .cls-7, .cls-8 {
        fill: none;
      }

      .cls-7, .cls-4 {
        stroke-linecap: round;
        stroke-linejoin: round;
      }

      .cls-8 {
        stroke: #e0bbaa;
        stroke-miterlimit: 10;
        stroke-width: 1.21px;
      }

      .cls-9 {
        fill: #dd6043;
      }

      .cls-10 {
        clip-path: url(#clippath-5);
      }

      .cls-11 {
        filter: url(#drop-shadow-139);
      }

      .cls-12 {
        fill: #ffbd03;
      }

      .cls-13 {
        opacity: .42;
      }

      .cls-4 {
        font-family: Verdana-Bold, Verdana;
        font-size: 56.71px;
        font-weight: 700;
        stroke: #b56a0f;
        stroke-width: 1.4px;
      }

      .cls-14 {
        clip-path: url(#clippath-2);
      }

      .cls-15 {
        fill: #840d00;
      }

      .cls-16 {
        fill: #ffe6d9;
      }

      .cls-17 {
        fill: #ca7b32;
        opacity: .48;
      }

      .cls-18 {
        fill: #d80e0e;
      }

      .cls-19 {
        clip-path: url(#clippath);
      }
    </style>
    <filter id="drop-shadow-139" x="12.42" y="17.86" width="130.37" height="199.98" filterUnits="userSpaceOnUse">
      <feOffset dx="2.41" dy="2.41"/>
      <feGaussianBlur result="blur" stdDeviation="1.81"/>
      <feFlood flood-color="#000" flood-opacity=".5"/>
      <feComposite in2="blur" operator="in"/>
      <feComposite in="SourceGraphic"/>
    </filter>
    <clipPath id="clippath">
      <path class="cls-5" d="M89.8,69.3c-5.18.47-10.36.95-15.55,1.42-5.36.49-10.75.52-16.12.08s-10.37-.84-15.56-1.26c-8.55,10.79-22.46,32.08-21.2,58.07.92,18.93,9.82,38.88,15.31,51.2,1.25,2.8,2.46,5.35,3.56,7.58,1.75,3.54,5.29,5.75,9.13,5.73l13.11-.07c2.89-.01,5.78-.03,8.66-.04l13.11-.07c3.87-.02,7.38-2.31,9.11-5.9,1.07-2.23,2.24-4.76,3.44-7.54,5.36-12.37,14.06-32.41,14.78-51.35,1-26-13.13-47.15-21.79-57.85Z"/>
    </clipPath>
    <clipPath id="clippath-2">
      <path class="cls-9" d="M90.96,60.31c-.88-5.04-2.05-10.04-3.55-14.94-2.09-6.84-4.98-13.96-10.48-18.78-4.83-4.24-11.64-5.92-18.11-5.54-6.62-.09-12.49,2.8-14.63,5.34-.79.94-1.28,1.93-1.57,2.83-.49,1.45-1.71,2.55-3.19,2.94-3.53.95-6.51,1.84-8.84,2.58-3.31,1.05-4.44,1.49-5.44,2.64-2.35,2.71-2.33,7.43-.49,10.68,3.32,5.85,11.72,5.43,12.9,5.37,2.12-.11,3.83-.61,4.95-1.02.65-.14,1.31-.27,1.96-.41-1.17,7.35-3.71,14.35-6.39,21.27-.09.22-.17.46-.11.7.07.24.29.41.49.55,7.49,5.27,17.71,6.67,26.68,6.83,9.14.17,19-1.55,26.49-7.09.32-.24.65-.5.83-.86.66-1.32-.25-4.37-.41-5.73-.29-2.46-.65-4.91-1.08-7.36Z"/>
    </clipPath>
    <clipPath id="clippath-4">
      <ellipse class="cls-3" cx="49.56" cy="29.17" rx="2.94" ry="2.21" transform="translate(-2.24 4.2) rotate(-4.74)"/>
    </clipPath>
    <clipPath id="clippath-5">
      <path class="cls-16" d="M54.89,21.43c-.1,0-.12-.13-.03-.16.9-.34,1.7-.85,2.51-1.34,1.97-1.2,4.27-1.96,6.49-2.56,4.79-1.29,9.98-1.58,14.89-.85,4.3.64,8.26,2.2,11.66,4.94,3.08,2.48,5.55,5.67,7.34,9.18.62,1.22,1.16,2.47,1.62,3.76,2.87,8.1,3.24,19.61-3.4,26.02-4.81,4.64-12.29,4.2-17.17-.1-6.62-5.84-3.46-15.61-4.49-23.28-.82-6.11-3.38-11.58-9.31-14.04-3.12-1.29-6.71-1.79-10.1-1.56Z"/>
    </clipPath>
  </defs>
  <g class="cls-11">
    <g>
      <path class="cls-5" d="M89.8,69.3c-5.18.47-10.36.95-15.55,1.42-5.36.49-10.75.52-16.12.08s-10.37-.84-15.56-1.26c-8.55,10.79-22.46,32.08-21.2,58.07.92,18.93,9.82,38.88,15.31,51.2,1.25,2.8,2.46,5.35,3.56,7.58,1.75,3.54,5.29,5.75,9.13,5.73l13.11-.07c2.89-.01,5.78-.03,8.66-.04l13.11-.07c3.87-.02,7.38-2.31,9.11-5.9,1.07-2.23,2.24-4.76,3.44-7.54,5.36-12.37,14.06-32.41,14.78-51.35,1-26-13.13-47.15-21.79-57.85Z"/>
      <g class="cls-19">
        <path class="cls-17" d="M78.9,68.11c4.21,21.14,3.79,38.88,2.42,51.61-2,18.52-3.29,30.55-12.71,38.78-15.8,13.82-41.56,5.72-45.15,4.53-.25,4.98-.87,27.93,15.28,42.94,20.56,19.11,54.18,12.23,73.14-.37,37.83-25.14,30.84-82.04,29.65-90.5-.72-5.11-2.79-31.17-19.61-49.37-3.95-4.28-7.89-7.24-12.95-8.54-14.58-3.74-28.08,8.99-30.06,10.91Z"/>
        <rect class="cls-15" x="12.44" y="160.17" width="110.95" height="6.25" transform="translate(-.84 .35) rotate(-.29)"/>
        <rect class="cls-18" x="12.5" y="171.11" width="110.95" height="7.81" transform="translate(-.9 .35) rotate(-.29)"/>
      </g>
    </g>
    <rect class="cls-6" x="38.85" y="187.72" width="58.08" height="8.6" rx="4.3" ry="4.3" transform="translate(-.98 .35) rotate(-.29)"/>
    <g class="cls-13">
      <path class="cls-3" d="M31.08,143.17c-.96,0-1.81-.66-2.01-1.63-1.2-5.8-1.76-11.73-1.69-17.62.13-10.42,2.24-20.67,6.25-30.47.43-1.05,1.63-1.54,2.67-1.12,1.05.43,1.55,1.62,1.12,2.67-3.82,9.32-5.82,19.07-5.95,28.97-.07,5.59.47,11.23,1.61,16.74.23,1.11-.48,2.19-1.59,2.42-.14.03-.27.04-.4.04Z"/>
    </g>
    <g>
      <g>
        <path class="cls-9" d="M90.96,60.31c-.88-5.04-2.05-10.04-3.55-14.94-2.09-6.84-4.98-13.96-10.48-18.78-4.83-4.24-11.64-5.92-18.11-5.54-6.62-.09-12.49,2.8-14.63,5.34-.79.94-1.28,1.93-1.57,2.83-.49,1.45-1.71,2.55-3.19,2.94-3.53.95-6.51,1.84-8.84,2.58-3.31,1.05-4.44,1.49-5.44,2.64-2.35,2.71-2.33,7.43-.49,10.68,3.32,5.85,11.72,5.43,12.9,5.37,2.12-.11,3.83-.61,4.95-1.02.65-.14,1.31-.27,1.96-.41-1.17,7.35-3.71,14.35-6.39,21.27-.09.22-.17.46-.11.7.07.24.29.41.49.55,7.49,5.27,17.71,6.67,26.68,6.83,9.14.17,19-1.55,26.49-7.09.32-.24.65-.5.83-.86.66-1.32-.25-4.37-.41-5.73-.29-2.46-.65-4.91-1.08-7.36Z"/>
        <g class="cls-14">
          <path class="cls-12" d="M42.73,23.59c2.74,1.09,1.94-.07,3.41-.21,1.99-.2,6.02.4,7.71.95.34.11,2.31.78,3.1,2.64.84,1.97,0,4.46-1.43,5.78-3.44,3.17-10.61-.15-11.97-.79-2.51-1.16-4.31-2.64-5.42-3.69,1.53-1.56,3.07-3.12,4.6-4.67Z"/>
          <polygon class="cls-1" points="38.9 86.61 53.65 54.22 49.64 89.55 38.9 86.61"/>
          <polygon class="cls-1" points="55.66 89.2 61.01 54.64 66.85 90.05 55.66 89.2"/>
          <polygon class="cls-1" points="71.06 89.48 69.9 54.49 82.22 88.89 71.06 89.48"/>
          <polygon class="cls-1" points="83.25 88.01 82.1 53.01 94.42 87.42 83.25 88.01"/>
        </g>
      </g>
      <g>
        <ellipse class="cls-3" cx="49.56" cy="29.17" rx="2.94" ry="2.21" transform="translate(-2.24 4.2) rotate(-4.74)"/>
        <g class="cls-2">
          <circle cx="48.82" cy="29.23" r="2.21"/>
        </g>
      </g>
    </g>
    <path class="cls-7" d="M37.75,74.82c2.47,1.13,4.58,1.91,6.12,2.43,4.96,1.69,25.09,8.19,45.03-2.01,1.84-.94,3.29-1.82,4.11-2.35"/>
  </g>
  <g>
    <path class="cls-16" d="M54.89,21.43c-.1,0-.12-.13-.03-.16.9-.34,1.7-.85,2.51-1.34,1.97-1.2,4.27-1.96,6.49-2.56,4.79-1.29,9.98-1.58,14.89-.85,4.3.64,8.26,2.2,11.66,4.94,3.08,2.48,5.55,5.67,7.34,9.18.62,1.22,1.16,2.47,1.62,3.76,2.87,8.1,3.24,19.61-3.4,26.02-4.81,4.64-12.29,4.2-17.17-.1-6.62-5.84-3.46-15.61-4.49-23.28-.82-6.11-3.38-11.58-9.31-14.04-3.12-1.29-6.71-1.79-10.1-1.56Z"/>
    <g class="cls-10">
      <path class="cls-8" d="M72.92,58.45c2.94.51,7.04.79,11.71-.22,12.3-2.67,18.95-12.31,20.62-14.91"/>
      <path class="cls-8" d="M72.32,50.29c3.37-.1,8.58-.68,14.36-3.18,8.08-3.49,12.99-8.87,15.3-11.79"/>
      <path class="cls-8" d="M72.23,38.47c2.79.21,6.97.18,11.74-1.23,7.55-2.24,12.36-6.68,14.56-9.02"/>
      <path class="cls-8" d="M71.47,31.44c1.62-.08,6.32-.52,10.7-4.07,3.87-3.13,5.38-6.97,5.9-8.56"/>
      <path class="cls-8" d="M68.03,26.55c1.41-.77,3.41-2.07,5.33-4.18,2.32-2.55,3.48-5.15,4.07-6.79"/>
      <path class="cls-8" d="M61.13,23.37c.55-.29,2.16-1.23,3.09-3.24.76-1.63.68-3.12.6-3.76"/>
    </g>
  </g>
  <ellipse class="cls-12" cx="26.53" cy="39.28" rx="2.92" ry="3.94" transform="translate(-13.67 64.39) rotate(-87.96)"/>
  <text class="cls-4" transform="translate(50.21 141.3) rotate(-.24)"><tspan x="0" y="0">?</tspan></text>
</svg>