<?xml version="1.0" encoding="UTF-8"?>
<svg id="_圖層_1" data-name="圖層 1" xmlns="http://www.w3.org/2000/svg" viewBox="0 0 111.43 46.49">
  <defs>
    <style>
      .cls-1 {
        fill: #ffe5c0;
      }
    </style>
  </defs>
  <path class="cls-1" d="M56.6,46.47c-18.29-.4-34.27-7.28-42.17-11.35L1.79,28.61c-1.02-.52-1.69-1.54-1.78-2.67-.09-1.14.42-2.25,1.34-2.92l11.46-8.42c8.04-5.91,16.89-10.09,26.32-12.44C45.4.6,51.89-.12,58.43.02c18.53.4,33.37,7.59,40.57,11.85l10.81,6.39c.93.55,1.53,1.51,1.61,2.59s-.36,2.12-1.19,2.8l-9.69,7.99c-4.21,3.47-8.8,6.38-13.62,8.65-9.22,4.34-19.42,6.42-30.32,6.18ZM9.55,25.18l7.9,4.07c7.39,3.81,22.33,10.25,39.29,10.62,9.87.21,19.07-1.66,27.36-5.56,4.33-2.04,8.44-4.65,12.23-7.78l6.06-4.99-6.76-3.99c-6.64-3.92-20.32-10.56-37.35-10.93-5.95-.13-11.86.53-17.57,1.95-8.58,2.14-16.66,5.95-24,11.35l-7.16,5.26Z"/>
  <path class="cls-1" d="M56.67,35.56c-13.91-.3-26.19-5.62-32.19-8.71-.85-.44-1.42-1.29-1.49-2.25-.08-.96.35-1.88,1.12-2.45,5.97-4.38,12.53-7.49,19.49-9.22,20.5-5.1,38.09,3.43,44.69,7.34.78.46,1.28,1.27,1.35,2.17s-.3,1.78-1,2.35c-3.06,2.52-6.38,4.63-9.88,6.28-7.38,3.47-14.96,4.64-22.11,4.49ZM31.35,23.98c10.11,4.44,28.33,9.95,45.07,2.07,1.84-.87,3.62-1.88,5.34-3.03-7.6-3.76-21.33-8.57-36.81-4.72-4.76,1.18-9.32,3.08-13.6,5.67Z"/>
</svg>