<?xml version="1.0" encoding="UTF-8"?>
<svg id="_圖層_1" data-name="圖層 1" xmlns="http://www.w3.org/2000/svg" viewBox="0 0 73.32 88.43">
  <defs>
    <style>
      .cls-1 {
        fill: #ffe5c0;
      }
    </style>
  </defs>
  <path class="cls-1" d="M24.84,88.43c-.07,0-.14,0-.21,0-1.82-.11-3.2-1.68-3.09-3.5l.79-12.61L1.85,62.25c-1.38-.68-2.11-2.21-1.76-3.71L13,2.56c.27-1.17,1.15-2.1,2.31-2.43,1.15-.33,2.4-.01,3.25.84l12.92,12.92c.67.67,1.02,1.59.96,2.54l-4.31,68.9c-.11,1.75-1.56,3.1-3.29,3.1ZM7.11,57.48l15.66,7.69,2.98-47.66-7.65-7.65L7.11,57.48Z"/>
  <path class="cls-1" d="M65.72,88.43c-.07,0-.14,0-.21,0-1.82-.11-3.2-1.68-3.09-3.5l.79-12.61-20.48-10.05c-1.38-.68-2.11-2.21-1.76-3.71L53.88,2.56c.27-1.17,1.15-2.1,2.31-2.43,1.15-.33,2.4-.01,3.25.84l12.92,12.92c.67.67,1.02,1.59.96,2.54l-4.31,68.9c-.11,1.75-1.56,3.1-3.29,3.1ZM47.99,57.48l15.66,7.69,2.98-47.66-7.65-7.65-10.99,47.62Z"/>
</svg>