<?xml version="1.0" encoding="UTF-8"?>
<svg id="_圖層_1" data-name="圖層 1" xmlns="http://www.w3.org/2000/svg" viewBox="0 0 103.35 62.94">
  <defs>
    <style>
      .cls-1 {
        fill: #ffe5c0;
      }
    </style>
  </defs>
  <path class="cls-1" d="M21.35,16.72c.33,0,.59.01.79.03,4.62.27,10.04,3.47,9.94,6.63-.02.53-.2,1.37-5.52,5.52-4.28,3.34-6.47,5.02-8.84,5.52-.74.16-1.9.41-3.19.41-1.48,0-3.14-.33-4.54-1.51-1.99-1.68-3.54-4.91-2.21-7.73.51-1.09,1.32-1.83,2.11-2.34,1.37-.88,2.68-1.84,3.75-3.06.71-.81,1.68-1.67,2.98-2.34,1.88-.97,3.63-1.13,4.73-1.13M21.35,11.2c-2.58,0-5.02.59-7.27,1.75-1.74.9-3.28,2.11-4.6,3.59-.56.64-1.36,1.27-2.58,2.06-1.82,1.17-3.24,2.77-4.12,4.63-2.6,5.52.06,11.29,3.64,14.31,2.18,1.84,4.99,2.82,8.1,2.82,1.85,0,3.44-.34,4.3-.52,3.71-.79,6.51-2.97,11.13-6.58,5.55-4.33,7.54-6.45,7.65-9.7.22-6.73-7.81-11.89-15.14-12.32-.28-.02-.65-.03-1.11-.03h0Z"/>
  <path class="cls-1" d="M23.64,54.52c-1.14,0-2.53-.08-4.31-.21-.86-.06-1.64-.49-2.16-1.18-.35-.47-.52-.96-.6-1.43-.13-.11-.28-.23-.43-.36-1.24-1.03-3.77-3.13-4.33-3.57-.04-.03-.08-.06-.12-.08q-1.05-.77-1.99-7.08c-.09-.63-.17-1.12-.2-1.3-.26-1.5.75-2.93,2.25-3.19,1.5-.26,2.93.75,3.19,2.25.03.19.11.73.22,1.43.15.99.45,3.02.64,4.13.86.67,2.06,1.67,3.86,3.16.69.58,1.23,1.03,1.39,1.15.15.11.28.24.4.38.08.1.16.2.23.31,3.47.22,3.72.02,5.49-1.42l.4-.33c1.38-1.12,1.99-1.86,2.69-2.72.85-1.04,1.81-2.21,3.95-3.92,2.83-2.27,4.99-2.97,6.57-3.49,1.38-.45,2.08-.67,3.07-1.75,2.06-2.23,2.98-5.8,2.59-10.03-.13-1.4-.42-4.67-2.66-7.29-.8-.94-1.36-1.24-2.47-1.85-1.15-.63-2.73-1.49-4.95-3.36-1.87-1.58-2.7-2.6-3.37-3.42-.58-.72-.96-1.19-2.04-2.01-.64-.48-4.29-2.68-6.27-1.49-1.77,1.07-3.38.59-4.25.33-.09-.03-.21-.06-.3-.09-.07.06-.18.16-.32.32-1.35,1.53-2.79,2.48-4.06,3.33-1.02.68-1.9,1.26-2.37,1.94-.63.91-2.11,4.39-1.75,6.87.22,1.51-.82,2.91-2.33,3.13-1.51.22-2.91-.82-3.13-2.33-.63-4.28,1.57-9.21,2.67-10.81,1.07-1.56,2.49-2.5,3.87-3.41,1.08-.72,2.1-1.39,2.96-2.37,2.62-2.98,5.23-2.21,6.34-1.88.05.02.1.03.16.05,5.47-2.95,12.06,1.95,12.13,2,1.62,1.23,2.33,2.1,3.01,2.94.6.74,1.16,1.44,2.63,2.67,1.8,1.51,2.99,2.16,4.04,2.74,1.26.69,2.56,1.4,4.02,3.11,3.38,3.96,3.81,8.62,3.96,10.38.53,5.81-.91,10.88-4.03,14.28-1.97,2.14-3.81,2.74-5.43,3.26-1.43.46-2.78.9-4.82,2.54-1.69,1.35-2.36,2.17-3.14,3.12-.78.95-1.67,2.03-3.48,3.5l-.39.32c-2.52,2.06-3.76,2.72-7.04,2.72ZM14.21,42.85c.28.13.63.35,1.11.71-.29-.3-.67-.56-1.11-.71ZM12.94,42.74s-.02,0-.03,0c.01,0,.02,0,.03,0Z"/>
  <path class="cls-1" d="M50.31,34.43c-1.32,0-2.48-.94-2.72-2.29-.26-1.5.74-2.93,2.24-3.2,3.62-.63,7.28-1.08,10.89-1.33,1.52-.09,2.84,1.04,2.95,2.57.11,1.52-1.04,2.84-2.56,2.95-3.41.24-6.88.66-10.32,1.26-.16.03-.32.04-.48.04Z"/>
  <path class="cls-1" d="M85.96,62.94c-4,0-7.47-1.24-10.06-2.15-5.19-1.85-14.85-5.29-18.25-14.94-3.25-9.23,1.46-17.47,3.48-20.99,1.72-3.01,7.75-12.49,15.01-11.38,2.55.38,5.71,2.19,6.65,5.24.88,2.87-.64,5.42-1.38,6.64-.62,1.03-1.22,1.93-1.81,2.73,10.74,1.31,14.65,3.88,16.84,6.03,1.57,1.54,9.26,9.64,6.2,18.36-1.04,2.97-3.72,7.03-10.53,9.42-2.15.76-4.21,1.05-6.15,1.05ZM74.96,18.9c-2.67,0-6.49,4.23-8.99,8.61-1.82,3.19-5.52,9.65-3.11,16.49,2.53,7.17,9.97,9.82,14.89,11.57,3.47,1.23,7.79,2.77,12.52,1.1,3.75-1.32,6.23-3.41,7.15-6.04,1.99-5.67-4.14-11.89-4.85-12.58-.91-.88-3.66-3.58-16.01-4.75-.54-.05-1.11-.1-1.69-.15-1.2,1.11-1.76,1.7-2.03,2.59-.9,3.07,2.22,7.72,5.63,10.26,3.47,2.59,7.31,2.85,9.29,2.77,1.51-.1,2.81,1.13,2.87,2.65.06,1.52-1.13,2.81-2.65,2.87-2.71.11-7.97-.25-12.81-3.86-4.09-3.05-9.5-9.89-7.63-16.25.72-2.46,2.23-3.85,3.83-5.33,1.55-1.43,3.31-3.06,5.29-6.36.27-.46,1-1.67.83-2.19-.17-.56-1.26-1.25-2.19-1.39-.12-.02-.23-.03-.35-.03Z"/>
  <path class="cls-1" d="M76.86,62.05H2.81c-1.41,0-2.59-1.06-2.75-2.46-.12-1.12-.5-6.93,4.21-11.19,4.31-3.9,9.94-3.6,12.59-2.81,1.46.44,2.29,1.98,1.86,3.44-.44,1.46-1.97,2.29-3.43,1.86-.19-.05-4.24-1.17-7.31,1.61-1.37,1.24-1.98,2.77-2.25,4.03h71.14c1.53,0,2.76,1.24,2.76,2.76s-1.24,2.76-2.76,2.76Z"/>
</svg>