<?xml version="1.0" encoding="UTF-8"?>
<svg id="_圖層_1" data-name="圖層 1" xmlns="http://www.w3.org/2000/svg" viewBox="0 0 50.47 98.16">
  <defs>
    <style>
      .cls-1 {
        fill: #ffe5c0;
      }
    </style>
  </defs>
  <path class="cls-1" d="M41.08,29.13c-1.09-3.01-1.71-6.18-2.32-9.39-.37-1.93-.58-3.99-1.13-5.88-1.11-3.84-2.66-7.84-5.69-10.58C28.55.21,23.35-.58,18.98.39c-1.14.25-2.04.79-2.66,1.6-.21.27-.37.58-.51.91-.1-.02-.18-.03-.21-.04-.79-.09-1.6-.1-2.4-.06-1.96.08-3.67.21-5.68,1.06-1.1.47-1.13,1.82-1.05,2.83.02.21.04.41.06.62-.03-.34.25-.63.46-.87.19-.22.4-.44.64-.61.61-.45,1.45-.57,2.19-.52,1.01.07,2.07.39,3.01.76.17.07,1.23.55,1.99.95-.51,3.17-.63,6.41-1.13,9.57-.58,3.68-1.91,7.24-3.05,10.78-1.63,5.05-4.78,9.26-6.9,14.07-1.79,4.06-3.11,8.35-3.54,12.78-.16,1.66-.22,3.33-.16,5,.35,10.58,5.14,21.81,8.1,28.73.67,1.58,1.33,3.01,1.92,4.27.18.37.4.71.64,1.03-.85.36-1.46,1.2-1.47,2.19-.01,1.32,1.06,2.41,2.38,2.43l27.64.29c1.32.01,2.41-1.06,2.43-2.38.01-1.32-1.06-2.41-2.38-2.43h-.1c.2-.27.38-.56.54-.86.62-1.24,1.29-2.64,1.99-4.18,3.11-6.86,8.14-17.98,8.71-28.55.5-9.23-2.49-18.26-7.21-26.1-.88-1.45-1.56-2.97-2.13-4.52Z"/>
</svg>