<?xml version="1.0" encoding="UTF-8"?>
<svg id="_物件_文字" data-name="物件＆文字" xmlns="http://www.w3.org/2000/svg" xmlns:xlink="http://www.w3.org/1999/xlink" viewBox="0 0 135 251">
  <defs>
    <style>
      .cls-1 {
        fill: #fcc016;
      }

      .cls-2, .cls-3 {
        fill: #fff;
      }

      .cls-4 {
        fill: #4479a3;
      }

      .cls-5 {
        fill: #ea8500;
      }

      .cls-6 {
        fill: #23abd3;
      }

      .cls-7 {
        filter: url(#drop-shadow-137);
      }

      .cls-8 {
        clip-path: url(#clippath-1);
      }

      .cls-3 {
        font-family: Verdana-Bold, Verdana;
        font-size: 56.71px;
        font-weight: 700;
        stroke: #b56a0f;
        stroke-width: 1.4px;
      }

      .cls-3, .cls-9 {
        stroke-linecap: round;
        stroke-linejoin: round;
      }

      .cls-10 {
        opacity: .39;
      }

      .cls-11 {
        clip-path: url(#clippath-2);
      }

      .cls-12 {
        fill: #840d00;
      }

      .cls-9 {
        fill: none;
        stroke: #6b4219;
        stroke-width: 4.14px;
      }

      .cls-13 {
        fill: #ca7b32;
        opacity: .48;
      }

      .cls-14 {
        fill: #d80e0e;
      }

      .cls-15 {
        clip-path: url(#clippath);
      }
    </style>
    <filter id="drop-shadow-137" x="13.08" y="4.59" width="132.42" height="251.92" filterUnits="userSpaceOnUse">
      <feOffset dx="2.79" dy="2.79"/>
      <feGaussianBlur result="blur" stdDeviation="2.1"/>
      <feFlood flood-color="#000" flood-opacity=".5"/>
      <feComposite in2="blur" operator="in"/>
      <feComposite in="SourceGraphic"/>
    </filter>
    <clipPath id="clippath">
      <path class="cls-5" d="M92.74,106.46c-5.25.41-10.5.82-15.75,1.23-5.43.43-10.89.38-16.31-.13-5.24-.5-10.48-.99-15.73-1.49-8.8,10.8-23.16,32.16-22.22,58.47.68,19.17,9.41,39.47,14.8,52,1.23,2.85,2.41,5.44,3.5,7.72,1.72,3.61,5.28,5.89,9.16,5.92l13.26.11c2.92.02,5.84.05,8.77.07l13.26.11c3.92.03,7.5-2.24,9.29-5.85,1.11-2.24,2.33-4.78,3.59-7.58,5.59-12.44,14.66-32.6,15.64-51.76,1.36-26.3-12.65-47.88-21.28-58.82Z"/>
    </clipPath>
    <clipPath id="clippath-1">
      <path class="cls-4" d="M81.04,42.89c-.05-12.56-2.26-23.64-5.95-33.73l-8.86,21.44c-.4.72-.83,1.47-1.29,2.29-5.22,9.28-16.73,17.49-27.45,19.24-2.61.43-5.37.4-8,.48-2.03.06-4.06.09-6.09-.04-1.05-.06-5.03-1.2-5.72-.34-.31.38-.35.91-.37,1.39-.22,4.88-.81,12.19,4.95,14.45,9.37,3.69,18.63,7.95,28.25,10.96-2.71,5.6-4.42,11.57-6.1,17.52-.85,2.98-1.68,5.97-2.63,8.92-.64,1.97-3.14,5.53-.83,7.3,2.41,1.85,7.44,2.69,10.34,3.36,4.16.96,7.37.77,11.63,1.04,6.18.4,12.42.06,18.52-1.01,1.81-.32,14.69-2.67,13.96-5.66l-14.36-67.63Z"/>
    </clipPath>
    <clipPath id="clippath-2">
      <path class="cls-2" d="M56.2,56.36c-.11,1.02-4.25,1.41-5.42,1.28-1.16-.12-4.01-1.27-3.89-2.28s3.14-1.53,4.31-1.4c1.16.12,5.12,1.38,5,2.4Z"/>
    </clipPath>
  </defs>
  <g class="cls-7">
    <g>
      <path class="cls-5" d="M92.74,106.46c-5.25.41-10.5.82-15.75,1.23-5.43.43-10.89.38-16.31-.13-5.24-.5-10.48-.99-15.73-1.49-8.8,10.8-23.16,32.16-22.22,58.47.68,19.17,9.41,39.47,14.8,52,1.23,2.85,2.41,5.44,3.5,7.72,1.72,3.61,5.28,5.89,9.16,5.92l13.26.11c2.92.02,5.84.05,8.77.07l13.26.11c3.92.03,7.5-2.24,9.29-5.85,1.11-2.24,2.33-4.78,3.59-7.58,5.59-12.44,14.66-32.6,15.64-51.76,1.36-26.3-12.65-47.88-21.28-58.82Z"/>
      <g class="cls-15">
        <path class="cls-13" d="M81.73,105.11c3.97,21.45,3.31,39.39,1.75,52.25-2.27,18.71-3.74,30.86-13.38,39.07-16.17,13.77-42.13,5.23-45.74,3.98-.31,5.03-1.25,28.25,14.88,43.65,20.54,19.61,54.65,13.09,74,.6,38.61-24.93,32.3-82.6,31.21-91.17-.66-5.18-2.41-31.58-19.18-50.22-3.94-4.38-7.88-7.43-12.99-8.81-14.71-3.98-28.53,8.72-30.56,10.64Z"/>
        <rect class="cls-12" x="13.21" y="198.12" width="112.27" height="6.33" transform="translate(1.63 -.55) rotate(.46)"/>
        <rect class="cls-14" x="13.11" y="209.18" width="112.27" height="7.91" transform="translate(1.73 -.55) rotate(.46)"/>
      </g>
    </g>
    <g>
      <g>
        <path class="cls-4" d="M81.04,42.89c-.05-12.56-2.26-23.64-5.95-33.73l-8.86,21.44c-.4.72-.83,1.47-1.29,2.29-5.22,9.28-16.73,17.49-27.45,19.24-2.61.43-5.37.4-8,.48-2.03.06-4.06.09-6.09-.04-1.05-.06-5.03-1.2-5.72-.34-.31.38-.35.91-.37,1.39-.22,4.88-.81,12.19,4.95,14.45,9.37,3.69,18.63,7.95,28.25,10.96-2.71,5.6-4.42,11.57-6.1,17.52-.85,2.98-1.68,5.97-2.63,8.92-.64,1.97-3.14,5.53-.83,7.3,2.41,1.85,7.44,2.69,10.34,3.36,4.16.96,7.37.77,11.63,1.04,6.18.4,12.42.06,18.52-1.01,1.81-.32,14.69-2.67,13.96-5.66l-14.36-67.63Z"/>
        <g class="cls-8">
          <path class="cls-1" d="M103.05,54.3c-6.02,1.01-13.48,12.01-28.26,20.91-.04.02-.08.05-.12.07-6.84,4.15-12.34,10.1-16.12,17.03-5.64,10.34-11.27,20.2-16.91,31.06,5.19,3.53,18.82,11.79,37.58,11.55,4.71-.06,30.5-.4,41.51-17.18,16.77-25.55-6.62-65.3-17.69-63.44Z"/>
          <path class="cls-1" d="M74.15,4.59c-.46,8.16-1.47,14.9-2.39,19.84-1.41,7.52-2.45,9.92-4.42,11.47-4.14,3.26-9.99.9-11.35.31,6.05-10.54,12.11-21.08,18.16-31.62Z"/>
          <polygon class="cls-4" points="51.67 122.64 71.65 76.72 62.89 123.61 51.67 122.64"/>
          <polygon class="cls-4" points="71.95 124.81 80.49 72.14 85.41 121.08 71.95 124.81"/>
          <polygon class="cls-4" points="86.26 67 90.6 118.93 102.22 116.42 86.26 67"/>
          <path class="cls-1" d="M22.53,50.66c.91,1.26.26,3.35-.86,4.49-2.01,2.06-5.36.9-6.03.63-.12-.05-.27-.12-.41-.26-.89-.86-.36-3.23.86-4.49,1.66-1.71,5.23-2.04,6.44-.37Z"/>
        </g>
      </g>
      <path class="cls-1" d="M60.56,56.91c-.19,1.65-6.92,2.29-8.81,2.08s-6.52-2.06-6.34-3.71c.19-1.65,5.12-2.48,7.01-2.28,1.89.2,8.33,2.25,8.14,3.91Z"/>
      <g>
        <path class="cls-2" d="M56.2,56.36c-.11,1.02-4.25,1.41-5.42,1.28-1.16-.12-4.01-1.27-3.89-2.28s3.14-1.53,4.31-1.4c1.16.12,5.12,1.38,5,2.4Z"/>
        <g class="cls-11">
          <path d="M54.13,56.34c-.11,1.02-3.46,1.49-4.4,1.39-.94-.1-3.21-1.18-3.09-2.19.11-1.02,2.57-1.59,3.5-1.49.94.1,4.1,1.27,3.98,2.29Z"/>
        </g>
      </g>
    </g>
    <rect class="cls-6" x="39.55" y="225.99" width="58.77" height="8.71" rx="4.35" ry="4.35" transform="translate(1.87 -.55) rotate(.46)"/>
    <g class="cls-10">
      <path class="cls-2" d="M32.35,180.42c-.97,0-1.82-.69-2.01-1.68-1.13-5.89-1.63-11.89-1.48-17.85.27-10.54,2.54-20.88,6.73-30.75.45-1.05,1.67-1.54,2.72-1.1,1.05.45,1.54,1.66,1.1,2.72-3.99,9.38-6.15,19.22-6.41,29.24-.14,5.66.33,11.36,1.4,16.96.22,1.12-.52,2.21-1.64,2.42-.14.03-.27.04-.41.04Z"/>
    </g>
    <path class="cls-9" d="M40.01,111.35c2.48,1.17,4.61,1.99,6.16,2.54,5,1.77,25.28,8.62,45.59-1.43,1.88-.93,3.35-1.8,4.19-2.32"/>
    <text class="cls-3" transform="translate(53.44 180.59) rotate(-.71)"><tspan x="0" y="0">?</tspan></text>
  </g>
</svg>