<?xml version="1.0" encoding="UTF-8"?>
<svg id="_圖層_1" data-name="圖層 1" xmlns="http://www.w3.org/2000/svg" viewBox="0 0 51 101.94">
  <defs>
    <style>
      .cls-1 {
        fill: #ffe5c0;
      }
    </style>
  </defs>
  <path class="cls-1" d="M41.41,32.31c-.35-.93-.6-1.89-.7-2.92-.08-.86-.18-1.71-.29-2.57.94-.28,1.83-.76,2.61-1.47,4.45-4.09,3.84-11.43,1.55-16.47C42.17,3.62,36.91.43,31.22.04c-3.44-.24-6.95.52-9.96,2.2-2.51,1.4-5.64,1.13-7.36,3.79-.81,1.26-1.19,2.21-2.68,2.67-1.56.48-3.18.82-4.75,1.27-1.09.31-2.19.64-3.27,1-.7.24-1.42.84-1.26,1.65.11.59.43,1.09.5,1.69.1.88,0,1.79.32,2.64,1.07,2.9,4.62,3.73,7.39,3.66,1.2-.03,2.17-.29,2.81-.51.37-.07.74-.14,1.11-.2-1.16.26-1.61,5.78-1.91,6.82-1.29,4.47-3.71,8.77-5.9,12.85-1.27,2.36-2.4,4.8-3.34,7.31C1.09,51.73-.12,57.05,0,62.26c.26,10.7,5.01,22.08,7.95,29.1.67,1.6,1.31,3.05,1.91,4.33.18.38.4.72.64,1.05-.87.36-1.49,1.2-1.51,2.2-.03,1.34,1.05,2.45,2.38,2.47l27.93.53c1.34.03,2.45-1.05,2.47-2.38.03-1.34-1.05-2.45-2.38-2.47h-.1c.2-.27.39-.56.55-.87.63-1.24,1.33-2.65,2.05-4.21,3.2-6.91,8.37-18.1,9.04-28.78.36-5.76-.73-11.51-2.73-16.9-1-2.69-2.2-5.36-3.56-7.89-1.1-2.05-2.43-3.99-3.24-6.13Z"/>
</svg>