<?xml version="1.0" encoding="UTF-8"?>
<svg id="_物件_文字" data-name="物件＆文字" xmlns="http://www.w3.org/2000/svg" xmlns:xlink="http://www.w3.org/1999/xlink" viewBox="0 0 135 215">
  <defs>
    <style>
      .cls-1 {
        fill: #fcc016;
      }

      .cls-2 {
        clip-path: url(#clippath-4);
      }

      .cls-3, .cls-4 {
        fill: #fff;
      }

      .cls-5 {
        fill: #4479a3;
      }

      .cls-6 {
        fill: #ea8500;
      }

      .cls-7 {
        fill: #23abd3;
      }

      .cls-8 {
        fill: #f0af0d;
      }

      .cls-9 {
        clip-path: url(#clippath-1);
      }

      .cls-10 {
        clip-path: url(#clippath-3);
      }

      .cls-11 {
        opacity: .42;
      }

      .cls-4 {
        font-family: Verdana-Bold, Verdana;
        font-size: 56.71px;
        font-weight: 700;
        stroke: #b56a0f;
        stroke-width: 1.4px;
      }

      .cls-4, .cls-12 {
        stroke-linecap: round;
        stroke-linejoin: round;
      }

      .cls-13 {
        clip-path: url(#clippath-2);
      }

      .cls-14 {
        fill: #840d00;
      }

      .cls-15 {
        filter: url(#drop-shadow-138);
      }

      .cls-16 {
        fill: #ca7b32;
        opacity: .48;
      }

      .cls-17 {
        fill: #d80e0e;
      }

      .cls-18 {
        clip-path: url(#clippath);
      }

      .cls-19 {
        fill: #f6e4cc;
      }

      .cls-12 {
        fill: none;
        stroke: #6b4219;
        stroke-width: 4.13px;
      }
    </style>
    <filter id="drop-shadow-138" x="11.95" y="14.01" width="131.71" height="202.78" filterUnits="userSpaceOnUse">
      <feOffset dx="2.44" dy="2.44"/>
      <feGaussianBlur result="blur" stdDeviation="1.83"/>
      <feFlood flood-color="#000" flood-opacity=".5"/>
      <feComposite in2="blur" operator="in"/>
      <feComposite in="SourceGraphic"/>
    </filter>
    <clipPath id="clippath">
      <path class="cls-6" d="M90.13,66.73c-5.24.48-10.47.96-15.71,1.44-5.42.5-10.86.52-16.28.08s-10.48-.85-15.72-1.28c-8.64,10.9-22.7,32.4-21.43,58.66.93,19.13,9.91,39.28,15.46,51.72,1.26,2.83,2.48,5.4,3.6,7.66,1.77,3.58,5.34,5.81,9.22,5.79l13.24-.07c2.92-.01,5.83-.03,8.75-.04l13.24-.07c3.91-.02,7.46-2.33,9.2-5.96,1.08-2.25,2.26-4.8,3.48-7.61,5.42-12.49,14.21-32.74,14.94-51.87,1.01-26.27-13.25-47.64-22.01-58.45Z"/>
    </clipPath>
    <clipPath id="clippath-1">
      <path class="cls-1" d="M51.53,23.98s-3.56-.65-3.96-.68c-1.44-.13-2.9-.13-4.34-.05-3.55.2-6.62.47-10.25,2.08-1.97.88-1.98,3.32-1.81,5.15.04.37.08.75.12,1.12-.07-.61.44-1.15.8-1.59.34-.41.72-.81,1.14-1.13,1.09-.84,2.61-1.08,3.95-1.01,1.83.09,3.75.65,5.46,1.3.5.19,5.2,2.28,5.06,2.57,1.28-2.59,2.55-5.18,3.83-7.77Z"/>
    </clipPath>
    <clipPath id="clippath-2">
      <path class="cls-19" d="M48.87,21.7c1.1-1.49,2.71-2.49,4.76-2.98,7.86-1.87,17.3-.59,23.51,4.86,5.56,4.87,8.48,12.07,10.59,18.97,1.51,4.95,2.69,10,3.58,15.09.43,2.47.79,4.95,1.09,7.43.17,1.38,1.08,4.46.41,5.79-.18.36-.51.63-.84.87-7.57,5.6-17.53,7.34-26.76,7.16-9.06-.17-19.38-1.59-26.95-6.91-.21-.15-.43-.31-.5-.56-.06-.23.02-.48.11-.7,2.83-7.33,5.52-14.74,6.62-22.56,1.11-7.87.94-16.02,3.07-23.72.29-1.05.73-1.96,1.31-2.75Z"/>
    </clipPath>
    <clipPath id="clippath-3">
      <path class="cls-5" d="M70.08,16.43c-3.17-.02-6.37.78-9.2,2.17-3.21,1.58-10.42,5.86-7.36,10.32,3.48,5.08,6.54-2.14,9.82-2.26,5.72-.22,3.73,7.87,1.1,10.11-2.08,1.77-5.02,1.83-7.26,3.28-2.91,1.88-3.17,6.06-4.07,9.15-1.63,5.58-3.36,11.14-5.16,16.67-.71,2.16-1.68,4.23-2.49,6.35-.57,1.49-2.25,4.96-1.26,6.48.35.54.91.9,1.46,1.24,2.68,1.65,5.5,3.02,8.55,3.85,1.82.49,5.95,1.42,20.07-1.13,16.01-2.88,19.13-5.58,20.79-7.44,2.11-2.38,3.19-4.91,3.77-6.73-1.48-9.48-3.22-17.23-4.59-22.72-3.43-13.72-5.47-16.99-7.24-19.26-2.7-3.45-5.96-6.63-9.95-8.54-2.19-1.05-4.57-1.53-6.96-1.55Z"/>
    </clipPath>
    <clipPath id="clippath-4">
      <ellipse class="cls-3" cx="57.64" cy="25.71" rx="2.97" ry="2.23" transform="translate(-1.92 4.84) rotate(-4.73)"/>
    </clipPath>
  </defs>
  <g class="cls-15">
    <g>
      <path class="cls-6" d="M90.13,66.73c-5.24.48-10.47.96-15.71,1.44-5.42.5-10.86.52-16.28.08s-10.48-.85-15.72-1.28c-8.64,10.9-22.7,32.4-21.43,58.66.93,19.13,9.91,39.28,15.46,51.72,1.26,2.83,2.48,5.4,3.6,7.66,1.77,3.58,5.34,5.81,9.22,5.79l13.24-.07c2.92-.01,5.83-.03,8.75-.04l13.24-.07c3.91-.02,7.46-2.33,9.2-5.96,1.08-2.25,2.26-4.8,3.48-7.61,5.42-12.49,14.21-32.74,14.94-51.87,1.01-26.27-13.25-47.64-22.01-58.45Z"/>
      <g class="cls-18">
        <path class="cls-16" d="M79.12,65.53c4.25,21.36,3.82,39.28,2.43,52.14-2.02,18.71-3.33,30.86-12.84,39.18-15.96,13.96-41.99,5.77-45.61,4.57-.25,5.03-.88,28.22,15.43,43.39,20.76,19.31,54.73,12.36,73.89-.37,38.22-25.39,31.17-82.88,29.97-91.42-.72-5.16-2.82-31.49-19.81-49.88-3.99-4.32-7.97-7.32-13.08-8.63-14.73-3.78-28.37,9.08-30.37,11.02Z"/>
        <rect class="cls-14" x="11.96" y="158.54" width="112.09" height="6.31" transform="translate(-.8 .34) rotate(-.28)"/>
        <rect class="cls-17" x="12.02" y="169.59" width="112.09" height="7.89" transform="translate(-.86 .34) rotate(-.28)"/>
      </g>
    </g>
    <rect class="cls-7" x="38.64" y="186.36" width="58.67" height="8.69" rx="4.35" ry="4.35" transform="translate(-.95 .34) rotate(-.28)"/>
    <g class="cls-11">
      <path class="cls-3" d="M30.8,141.35c-.96,0-1.83-.67-2.03-1.65-1.21-5.86-1.78-11.85-1.71-17.8.14-10.52,2.26-20.88,6.32-30.78.43-1.06,1.64-1.56,2.7-1.13,1.06.43,1.56,1.64,1.13,2.7-3.86,9.42-5.89,19.27-6.01,29.27-.07,5.65.47,11.34,1.62,16.92.23,1.12-.49,2.21-1.61,2.44-.14.03-.27.04-.41.04Z"/>
    </g>
    <g>
      <g>
        <path class="cls-1" d="M51.53,23.98s-3.56-.65-3.96-.68c-1.44-.13-2.9-.13-4.34-.05-3.55.2-6.62.47-10.25,2.08-1.97.88-1.98,3.32-1.81,5.15.04.37.08.75.12,1.12-.07-.61.44-1.15.8-1.59.34-.41.72-.81,1.14-1.13,1.09-.84,2.61-1.08,3.95-1.01,1.83.09,3.75.65,5.46,1.3.5.19,5.2,2.28,5.06,2.57,1.28-2.59,2.55-5.18,3.83-7.77Z"/>
        <g class="cls-9">
          <path class="cls-8" d="M46.84,27.96c-2.53-.83-4.65-.99-6.04-.99-.58,0-5.72.04-7.28,2.09-.8,1.06-1.13,2.42-1.13,2.42-.09.37-.13.56-.1.66.35,1.12,4.18-.01,9,.75,3.68.58,5.09,1.81,6.04.99.73-.63.9-2.24-.49-5.92Z"/>
        </g>
      </g>
      <g>
        <path class="cls-19" d="M48.87,21.7c1.1-1.49,2.71-2.49,4.76-2.98,7.86-1.87,17.3-.59,23.51,4.86,5.56,4.87,8.48,12.07,10.59,18.97,1.51,4.95,2.69,10,3.58,15.09.43,2.47.79,4.95,1.09,7.43.17,1.38,1.08,4.46.41,5.79-.18.36-.51.63-.84.87-7.57,5.6-17.53,7.34-26.76,7.16-9.06-.17-19.38-1.59-26.95-6.91-.21-.15-.43-.31-.5-.56-.06-.23.02-.48.11-.7,2.83-7.33,5.52-14.74,6.62-22.56,1.11-7.87.94-16.02,3.07-23.72.29-1.05.73-1.96,1.31-2.75Z"/>
        <g class="cls-13">
          <g>
            <path class="cls-5" d="M70.08,16.43c-3.17-.02-6.37.78-9.2,2.17-3.21,1.58-10.42,5.86-7.36,10.32,3.48,5.08,6.54-2.14,9.82-2.26,5.72-.22,3.73,7.87,1.1,10.11-2.08,1.77-5.02,1.83-7.26,3.28-2.91,1.88-3.17,6.06-4.07,9.15-1.63,5.58-3.36,11.14-5.16,16.67-.71,2.16-1.68,4.23-2.49,6.35-.57,1.49-2.25,4.96-1.26,6.48.35.54.91.9,1.46,1.24,2.68,1.65,5.5,3.02,8.55,3.85,1.82.49,5.95,1.42,20.07-1.13,16.01-2.88,19.13-5.58,20.79-7.44,2.11-2.38,3.19-4.91,3.77-6.73-1.48-9.48-3.22-17.23-4.59-22.72-3.43-13.72-5.47-16.99-7.24-19.26-2.7-3.45-5.96-6.63-9.95-8.54-2.19-1.05-4.57-1.53-6.96-1.55Z"/>
            <g class="cls-10">
              <polygon class="cls-1" points="48.67 79.36 59.29 45.69 57.79 81.58 48.67 79.36"/>
              <polygon class="cls-1" points="62.8 80.82 65.46 45.61 72.19 80.9 62.8 80.82"/>
              <polygon class="cls-1" points="75.68 80.04 72.88 44.85 84.97 78.67 75.68 80.04"/>
              <polygon class="cls-1" points="85.79 77.71 82.99 42.52 95.08 76.35 85.79 77.71"/>
              <polygon class="cls-1" points="95.9 73.9 93.1 38.7 105.19 72.53 95.9 73.9"/>
            </g>
          </g>
        </g>
      </g>
      <g>
        <ellipse class="cls-3" cx="57.64" cy="25.71" rx="2.97" ry="2.23" transform="translate(-1.92 4.84) rotate(-4.73)"/>
        <g class="cls-2">
          <circle cx="56.9" cy="25.77" r="2.23"/>
        </g>
      </g>
    </g>
    <path class="cls-12" d="M37.55,72.3c2.49,1.14,4.62,1.93,6.18,2.46,5.01,1.71,25.35,8.28,45.49-2.02,1.86-.95,3.32-1.84,4.15-2.37"/>
    <text class="cls-4" transform="translate(52.88 140.23) rotate(.29)"><tspan x="0" y="0">?</tspan></text>
  </g>
</svg>