<?xml version="1.0" encoding="UTF-8"?>
<svg id="_圖層_1" data-name="圖層 1" xmlns="http://www.w3.org/2000/svg" viewBox="0 0 85.6 96.49">
  <defs>
    <style>
      .cls-1 {
        fill: #ffe5c0;
      }
    </style>
  </defs>
  <path class="cls-1" d="M76.49,64.88l-.23-.34c-3.08-4.55-6.11-9.28-9.03-13.85-3.92-6.13-7.97-12.46-12.26-18.54-4.1-5.82-8.22-11.7-12.25-17.49.1-2.49-.29-7.06-3.8-10.64-4.55-4.64-12.16-5.33-18.33-1.75-3.22.61-6.36,1.58-9.36,2.88-3.57,1.55-6.93,3.56-9.98,5.99C0,12.14-.36,13.88.39,15.28c.75,1.41,2.4,2.08,3.92,1.59,2.87-.92,5.81-1.18,8.73-.8,1.42.19,2.81.53,4.16,1.02.19.8.31,1.6.37,2.41.21,2.96-.5,5.14-1.14,7.07-.24.72-.46,1.41-.63,2.09-1.05,4.41.74,7.25,3.22,11.18.54.85,1.13,1.8,1.77,2.87-.01.42.05.84.2,1.26,2.32,6.23,3.58,12.41,3.75,18.35.01.48.02.98.03,1.47.05,3.42.13,7.54,2.53,10.52l-5.75,12.33h-12.25c-1.82,0-3.3,1.48-3.3,3.3s1.48,3.3,3.3,3.3h46.2c1.82,0,3.3-1.48,3.3-3.3s-1.48-3.3-3.3-3.3h-10.56v-4.5c2.51.08,4.88-.87,6.45-1.97,1.89-1.33,3.25-3.3,3.99-5.6l23.31,21.06c.61.55,1.4.85,2.21.85.23,0,.47-.02.7-.08,1.04-.23,1.91-.94,2.33-1.92.46-1.07.83-2.18,1.1-3.31,2.42-10.08-3.67-19.07-8.56-26.3ZM32.92,70.62c-1.18-.83-1.43-2.8-1.51-5.7,1.01,2.22,2,4.38,2.96,6.39-.48-.15-1.03-.38-1.46-.68ZM29.63,86.65h-.79l4.15-8.88c.72.18,1.47.3,2.23.3.8,0,1.6-.15,2.37-.45.18.31.43.7.77,1.13,0,.04-.01.08-.01.12v7.78h-8.71ZM47.6,74.78c-.88.62-2.32,1.02-3.22.61-.65-.29-1.05-1.03-1.23-1.34-2.32-4.23-5.45-11.22-8.22-17.38-.09-.21-.18-.41-.28-.62,4.83,5.84,10.64,9.87,14.42,12.12,0,0,0,.02,0,.02.75,2.74.14,5.45-1.48,6.59ZM55.05,65.38c-.16-.94-.72-1.81-1.62-2.32-5.57-3.14-18.72-11.99-20.52-26.18-.27-2.15-.27-4.36,0-6.57.22-1.81-1.06-3.46-2.87-3.68-1.81-.23-3.46,1.06-3.68,2.87-.34,2.76-.34,5.52,0,8.21.09.68.2,1.34.32,1.99-.75-1.28-1.45-2.38-2.08-3.37-2.33-3.7-2.76-4.56-2.38-6.13.1-.41.27-.94.48-1.56.7-2.13,1.76-5.34,1.45-9.61-.13-1.83-.5-3.65-1.08-5.42-.29-.88-.94-1.59-1.78-1.97-1.45-.66-2.96-1.18-4.49-1.56,1.81-.61,3.67-1.09,5.55-1.42.42-.08.83-.23,1.2-.46,3.59-2.28,8.17-2.09,10.66.45,2.28,2.32,1.95,5.82,1.86,6.49-.11.82.09,1.64.56,2.32,4.25,6.12,8.61,12.34,12.95,18.5,4.2,5.95,8.21,12.22,12.09,18.29,2.95,4.61,6,9.37,9.12,14l.23.34c4.03,5.96,8.19,12.1,7.97,18.41l-23.94-21.62Z"/>
</svg>