<?xml version="1.0" encoding="UTF-8"?>
<svg id="_圖層_1" data-name="圖層 1" xmlns="http://www.w3.org/2000/svg" viewBox="0 0 111.25 82.45">
  <defs>
    <style>
      .cls-1 {
        fill: #ffe5c0;
      }
    </style>
  </defs>
  <path class="cls-1" d="M89.32,78.2c-1.62,0-2.94-1.32-2.94-2.94V10.69c0-.24.03-.48.09-.72,1.27-5.04,5.16-8.87,9.9-9.77,6.33-1.19,12.81,3.05,14.76,9.65.08.27.12.55.12.83v38.18c0,1.62-1.31,2.94-2.94,2.94s-2.94-1.32-2.94-2.94V11.14c-1.22-3.53-4.63-5.79-7.92-5.17-2.41.45-4.42,2.44-5.2,5.1v64.19c0,1.62-1.31,2.94-2.94,2.94Z"/>
  <path class="cls-1" d="M76.16,46.74c-1.23-1.1-2.83-2-4.65-2.6-1.44-.47-2.92-.73-4.28-.73h0c-2.18,0-3.84.64-5.05,1.56-.75-.38-1.6-.6-2.5-.6H5.49c-3.03,0-5.49,2.46-5.49,5.49,0,17.97,14.62,32.59,32.59,32.59,15.51,0,28.51-10.89,31.78-25.42.77.43,1.61.8,2.53,1.1,1.44.47,2.92.73,4.28.73,4.25,0,6.56-2.41,7.3-4.66.86-2.6-.01-5.39-2.32-7.46ZM32.59,76.96c-14.96,0-27.09-12.13-27.09-27.09h54.11c-.01.36,0,.72.05,1.08-.57,14.46-12.46,26.02-27.07,26.02ZM73.27,52.48c-.19.58-1,.89-2.09.89-.75,0-1.64-.15-2.56-.45-1.84-.61-3.2-1.65-3.46-2.55,0-.17.01-.33.01-.5,0-.04,0-.08,0-.12.22-.54,1.01-.83,2.06-.83.75,0,1.64.15,2.56.45,2.24.74,3.8,2.14,3.48,3.12Z"/>
</svg>