<?xml version="1.0" encoding="UTF-8"?>
<svg id="_圖層_1" data-name="圖層 1" xmlns="http://www.w3.org/2000/svg" xmlns:xlink="http://www.w3.org/1999/xlink" viewBox="0 0 50.58 119.43">
  <defs>
    <style>
      .cls-1 {
        font-family: Verdana-Bold, Verdana;
        font-size: 29.98px;
        font-weight: 700;
      }

      .cls-1, .cls-2 {
        fill: #ffe5c0;
      }

      .cls-3 {
        clip-path: url(#clippath-1);
      }

      .cls-4 {
        opacity: .39;
      }

      .cls-5 {
        clip-path: url(#clippath-2);
      }
    </style>
    <clipPath id="clippath-1">
      <path class="cls-2" d="M33.85,17.86c.05-6.64-1.05-12.51-2.93-17.86l-4.82,11.28c-.22.38-.45.77-.7,1.2-2.82,4.87-8.95,9.14-14.63,10-1.38.21-2.84.18-4.23.2-1.07.02-2.15.02-3.22-.06-.56-.04-2.65-.67-3.02-.22-.17.2-.19.48-.2.73-.15,2.58-.51,6.44,2.53,7.67,4.93,2.01,9.8,4.32,14.86,5.97-1.47,2.94-2.41,6.09-3.34,9.22-.47,1.57-.92,3.14-1.45,4.7-.35,1.04-1.69,2.9-.48,3.85,1.26.99,3.92,1.47,5.44,1.84,2.19.53,3.89.45,6.14.62,3.27.25,6.56.11,9.79-.42.96-.16,7.78-1.32,7.42-2.9l-7.16-35.84Z"/>
    </clipPath>
    <clipPath id="clippath-2">
      <path class="cls-2" d="M20.64,24.83c-.07.54-2.26.72-2.87.64s-2.11-.69-2.04-1.23,1.67-.79,2.29-.71,2.7.76,2.63,1.3Z"/>
    </clipPath>
  </defs>
  <path class="cls-2" d="M39.63,51.54c-2.78.18-5.55.37-8.33.55s-5.76.13-8.62-.17-5.54-.59-8.3-.89c-4.72,5.65-12.44,16.85-12.12,30.77.24,10.14,4.73,20.92,7.5,27.58.63,1.52,1.24,2.89,1.8,4.1.89,1.92,2.75,3.14,4.8,3.19l7.01.14,4.63.09,7.01.14c2.07.04,3.98-1.14,4.95-3.03.6-1.18,1.26-2.51,1.94-3.98,3.03-6.54,7.95-17.14,8.6-27.26.88-13.89-6.38-25.39-10.87-31.23Z"/>
  <g>
    <g>
      <path class="cls-2" d="M33.85,17.86c.05-6.64-1.05-12.51-2.93-17.86l-4.82,11.28c-.22.38-.45.77-.7,1.2-2.82,4.87-8.95,9.14-14.63,10-1.38.21-2.84.18-4.23.2-1.07.02-2.15.02-3.22-.06-.56-.04-2.65-.67-3.02-.22-.17.2-.19.48-.2.73-.15,2.58-.51,6.44,2.53,7.67,4.93,2.01,9.8,4.32,14.86,5.97-1.47,2.94-2.41,6.09-3.34,9.22-.47,1.57-.92,3.14-1.45,4.7-.35,1.04-1.69,2.9-.48,3.85,1.26.99,3.92,1.47,5.44,1.84,2.19.53,3.89.45,6.14.62,3.27.25,6.56.11,9.79-.42.96-.16,7.78-1.32,7.42-2.9l-7.16-35.84Z"/>
      <g class="cls-3">
        <polygon class="cls-2" points="17.83 59.83 28.67 35.68 23.75 60.42 17.83 59.83"/>
        <polygon class="cls-2" points="28.53 61.11 33.38 33.32 35.67 59.22 28.53 61.11"/>
        <polygon class="cls-2" points="36.46 30.64 38.42 58.12 44.58 56.86 36.46 30.64"/>
      </g>
    </g>
    <path class="cls-2" d="M22.94,25.15c-.11.87-3.67,1.17-4.67,1.05s-3.43-1.13-3.33-2,2.72-1.28,3.72-1.16,4.39,1.24,4.28,2.12Z"/>
    <g>
      <path class="cls-2" d="M20.64,24.83c-.07.54-2.26.72-2.87.64s-2.11-.69-2.04-1.23,1.67-.79,2.29-.71,2.7.76,2.63,1.3Z"/>
      <g class="cls-5">
        <path class="cls-2" d="M19.54,24.81c-.07.54-1.84.77-2.33.71s-1.69-.64-1.62-1.18,1.37-.82,1.86-.76,2.16.7,2.09,1.24Z"/>
      </g>
    </g>
  </g>
  <rect class="cls-2" x="10.73" y="114.57" width="31.07" height="4.6" rx="2.3" ry="2.3" transform="translate(2.35 -.5) rotate(1.15)"/>
  <g class="cls-4">
    <path class="cls-2" d="M7.25,90.25c-.51-.01-.96-.38-1.05-.9-.56-3.12-.79-6.3-.67-9.44.21-5.57,1.47-11.02,3.75-16.21.24-.55.89-.8,1.44-.56.55.24.81.89.56,1.44-2.17,4.93-3.37,10.12-3.57,15.41-.11,2.99.1,6.01.63,8.97.11.59-.29,1.16-.88,1.27-.07.01-.14.02-.22.02Z"/>
  </g>
  <text class="cls-1" transform="translate(18.39 90.47) rotate(-.03)"><tspan x="0" y="0">?</tspan></text>
</svg>