<?xml version="1.0" encoding="UTF-8"?>
<svg id="_圖層_1" data-name="圖層 1" xmlns="http://www.w3.org/2000/svg" viewBox="0 0 91.58 23.11">
  <defs>
    <style>
      .cls-1 {
        fill: #ffe5c0;
      }
    </style>
  </defs>
  <path class="cls-1" d="M3.3,23.11c-.61,0-1.23-.17-1.79-.53-1.53-.99-1.98-3.03-.99-4.56L11.15,1.51c.61-.94,1.65-1.51,2.78-1.51s2.17.57,2.78,1.51l7.85,12.19,7.84-12.19c.61-.94,1.65-1.52,2.78-1.52s2.17.57,2.78,1.51l7.85,12.19,7.84-12.19c.61-.95,1.65-1.52,2.78-1.52h0c1.12,0,2.17.57,2.78,1.52l7.84,12.18,7.84-12.18c.61-.94,1.65-1.52,2.78-1.52s2.17.57,2.78,1.52l10.62,16.5c.99,1.53.54,3.58-.99,4.56-1.53.99-3.58.54-4.56-.99l-7.84-12.18-7.84,12.18c-.61.94-1.65,1.52-2.78,1.52s-2.17-.57-2.78-1.52l-7.84-12.18-7.84,12.18c-.61.94-1.65,1.52-2.78,1.52s-2.17-.57-2.78-1.51l-7.85-12.19-7.84,12.19c-.61.94-1.65,1.52-2.78,1.52s-2.17-.57-2.78-1.51l-7.85-12.19-7.85,12.19c-.63.98-1.69,1.51-2.78,1.51Z"/>
</svg>