<?xml version="1.0" encoding="UTF-8"?>
<svg id="_物件_文字" data-name="物件＆文字" xmlns="http://www.w3.org/2000/svg" xmlns:xlink="http://www.w3.org/1999/xlink" viewBox="0 0 135 215">
  <defs>
    <style>
      .cls-1 {
        stroke-width: 3.14px;
      }

      .cls-1, .cls-2, .cls-3, .cls-4, .cls-5 {
        fill: none;
      }

      .cls-1, .cls-3, .cls-4 {
        stroke-miterlimit: 10;
      }

      .cls-1, .cls-4 {
        stroke: #23abd3;
      }

      .cls-2 {
        stroke: #6b4219;
        stroke-width: 7.76px;
      }

      .cls-2, .cls-6, .cls-5, .cls-7 {
        stroke-linecap: round;
        stroke-linejoin: round;
      }

      .cls-8 {
        fill: #ffc729;
      }

      .cls-9, .cls-6, .cls-7 {
        fill: #fff;
      }

      .cls-10 {
        fill: #ea8500;
      }

      .cls-11 {
        fill: #23abd3;
      }

      .cls-12 {
        clip-path: url(#clippath-1);
      }

      .cls-13 {
        fill: #364453;
      }

      .cls-14 {
        fill: #ffbe57;
      }

      .cls-15 {
        filter: url(#drop-shadow-139);
      }

      .cls-3 {
        stroke: #ffbc00;
        stroke-width: 5.38px;
      }

      .cls-16 {
        opacity: .42;
      }

      .cls-6 {
        font-family: Verdana-Bold, Verdana;
        font-size: 43.15px;
        font-weight: 700;
        stroke: #b56a0f;
        stroke-width: 1.06px;
      }

      .cls-4 {
        stroke-width: 2.99px;
      }

      .cls-5 {
        stroke-width: .86px;
      }

      .cls-5, .cls-7 {
        stroke: #364453;
      }

      .cls-7 {
        stroke-width: .36px;
      }

      .cls-17 {
        fill: #ca7b32;
        opacity: .48;
      }

      .cls-18 {
        fill: #d80e0e;
      }

      .cls-19 {
        clip-path: url(#clippath);
      }
    </style>
    <filter id="drop-shadow-139" x="8.79" y="1.71" width="129.1" height="213.31" filterUnits="userSpaceOnUse">
      <feOffset dx="2.39" dy="2.39"/>
      <feGaussianBlur result="blur" stdDeviation="1.79"/>
      <feFlood flood-color="#000" flood-opacity=".5"/>
      <feComposite in2="blur" operator="in"/>
      <feComposite in="SourceGraphic"/>
    </filter>
    <clipPath id="clippath">
      <path class="cls-10" d="M85.71,68.12c-5.13.45-10.26.9-15.39,1.35-5.31.46-10.64.47-15.95.02-5.13-.44-10.26-.88-15.39-1.31-8.51,10.64-22.36,31.65-21.21,57.37.83,18.73,9.56,38.51,14.94,50.72,1.23,2.78,2.41,5.3,3.49,7.52,1.72,3.51,5.21,5.71,9.01,5.7h12.97c2.86-.02,5.71-.02,8.57-.02h12.97c3.83-.02,7.31-2.27,9.04-5.82,1.07-2.2,2.23-4.7,3.44-7.44,5.36-12.22,14.04-32.01,14.84-50.75,1.09-25.73-12.8-46.71-21.33-57.33Z"/>
    </clipPath>
    <clipPath id="clippath-1">
      <path class="cls-13" d="M20.28,79c-.48-.99-.38-2.23-.24-3.34.68-5.79,2.5-14.05,4.5-20.38,3.7-12.22,6.94-21.68,17.64-27.19,7.88-4.01,16.51-4.1,25.19-4.02,10.85.21,20.49,5.57,26.13,14.68,3.54,5.33,4.37,11.14,5.81,17.15,1.73,7.4,3.13,16.7,3.46,24.98.47,4.73-2.53,5.27-6.05,7.32-2.71,1.62-4.6,3.17-6.85,5.75-4.12,4.72-7.03,11.47-7.63,17.89-.35,2.6.24,4.56-1.87,5.25-1.27.35-2.64.24-4,.2-2.47-.02-5.52-.29-5.79-3.27-.01-11.16.87-22.41,1.16-33.6.37-5.01-2.1-5.49-6.72-5.53-2.7-.1-5.43-.23-8.11-.31-3.68-.21-4.88,1.7-4.88,5.17-.55,11.34-.7,22.76-1.47,34.07-.54,3.68-4.17,3.21-7.29,3.04-2.59-.11-4.36-.82-4.1-3.84.07-2.05.07-4.08-.21-6.49-.39-3.77-1.5-7.71-3.02-11.14-1.97-4.79-5.31-8.63-9.39-11.81-1.26-.97-2.65-1.84-4.01-2.59-.91-.52-1.78-1.06-2.24-1.93l-.03-.06Z"/>
    </clipPath>
  </defs>
  <g class="cls-15">
    <g>
      <path class="cls-10" d="M85.71,68.12c-5.13.45-10.26.9-15.39,1.35-5.31.46-10.64.47-15.95.02-5.13-.44-10.26-.88-15.39-1.31-8.51,10.64-22.36,31.65-21.21,57.37.83,18.73,9.56,38.51,14.94,50.72,1.23,2.78,2.41,5.3,3.49,7.52,1.72,3.51,5.21,5.71,9.01,5.7h12.97c2.86-.02,5.71-.02,8.57-.02h12.97c3.83-.02,7.31-2.27,9.04-5.82,1.07-2.2,2.23-4.7,3.44-7.44,5.36-12.22,14.04-32.01,14.84-50.75,1.09-25.73-12.8-46.71-21.33-57.33Z"/>
      <g class="cls-19">
        <path class="cls-17" d="M74.93,66.9c4.08,20.94,3.59,38.49,2.18,51.08-2.05,18.32-3.38,30.21-12.73,38.32-15.69,13.61-41.15,5.49-44.69,4.3-.26,4.93-.98,27.63,14.94,42.55,20.26,18.99,53.55,12.32,72.36-.07,37.53-24.72,30.85-81.05,29.71-89.42-.69-5.06-2.64-30.86-19.2-48.93-3.9-4.25-7.77-7.2-12.78-8.5-14.41-3.76-27.82,8.78-29.79,10.67Z"/>
        <rect class="cls-18" x="8.79" y="157.95" width="109.78" height="6.18"/>
        <rect class="cls-8" x="8.8" y="168.77" width="109.78" height="7.73"/>
        <circle class="cls-3" cx="62.52" cy="53.19" r="48.79"/>
      </g>
    </g>
    <rect class="cls-11" x="33.95" y="185.67" width="57.47" height="8.51" rx="4.26" ry="4.26"/>
    <g class="cls-16">
      <path class="cls-9" d="M27.32,140.98c-.95,0-1.79-.66-1.98-1.63-1.16-5.75-1.7-11.62-1.6-17.44.17-10.31,2.3-20.44,6.31-30.13.43-1.03,1.62-1.52,2.65-1.1,1.03.43,1.52,1.61,1.1,2.65-3.82,9.21-5.84,18.85-6,28.64-.09,5.53.42,11.11,1.52,16.57.22,1.1-.49,2.16-1.59,2.38-.13.03-.27.04-.4.04Z"/>
    </g>
    <path class="cls-2" d="M31.69,77.67c2.78,1.13,5.16,1.91,6.9,2.44,5.59,1.7,28.29,8.25,50.83-1.72,2.08-.92,3.71-1.78,4.65-2.3"/>
  </g>
  <g>
    <path class="cls-13" d="M20.28,79c-.48-.99-.38-2.23-.24-3.34.68-5.79,2.5-14.05,4.5-20.38,3.7-12.22,6.94-21.68,17.64-27.19,7.88-4.01,16.51-4.1,25.19-4.02,10.85.21,20.49,5.57,26.13,14.68,3.54,5.33,4.37,11.14,5.81,17.15,1.73,7.4,3.13,16.7,3.46,24.98.47,4.73-2.53,5.27-6.05,7.32-2.71,1.62-4.6,3.17-6.85,5.75-4.12,4.72-7.03,11.47-7.63,17.89-.35,2.6.24,4.56-1.87,5.25-1.27.35-2.64.24-4,.2-2.47-.02-5.52-.29-5.79-3.27-.01-11.16.87-22.41,1.16-33.6.37-5.01-2.1-5.49-6.72-5.53-2.7-.1-5.43-.23-8.11-.31-3.68-.21-4.88,1.7-4.88,5.17-.55,11.34-.7,22.76-1.47,34.07-.54,3.68-4.17,3.21-7.29,3.04-2.59-.11-4.36-.82-4.1-3.84.07-2.05.07-4.08-.21-6.49-.39-3.77-1.5-7.71-3.02-11.14-1.97-4.79-5.31-8.63-9.39-11.81-1.26-.97-2.65-1.84-4.01-2.59-.91-.52-1.78-1.06-2.24-1.93l-.03-.06Z"/>
    <g class="cls-12">
      <rect class="cls-11" x="7.88" y="64.99" width="102.6" height="3.11" transform="translate(1.55 -1.34) rotate(1.32)"/>
      <rect class="cls-11" x="7.57" y="72.56" width="102.6" height="3.11" transform="translate(1.72 -1.33) rotate(1.32)"/>
      <rect class="cls-11" x="7.25" y="80.12" width="102.6" height="3.11" transform="translate(1.89 -1.32) rotate(1.32)"/>
      <rect class="cls-11" x="6.93" y="87.69" width="102.6" height="3.11" transform="translate(2.07 -1.32) rotate(1.32)"/>
      <rect class="cls-11" x="6.62" y="95.25" width="102.6" height="3.11" transform="translate(2.24 -1.31) rotate(1.32)"/>
      <rect class="cls-11" x="6.3" y="102.82" width="102.6" height="3.11" transform="translate(2.41 -1.3) rotate(1.32)"/>
      <rect class="cls-11" x="5.98" y="110.38" width="102.6" height="3.11" transform="translate(2.59 -1.29) rotate(1.32)"/>
      <rect class="cls-11" x="8.2" y="57.43" width="102.6" height="3.11" transform="translate(1.37 -1.35) rotate(1.32)"/>
      <rect class="cls-11" x="8.52" y="49.86" width="102.6" height="3.11" transform="translate(1.2 -1.36) rotate(1.32)"/>
      <rect class="cls-11" x="8.84" y="42.3" width="102.6" height="3.11" transform="translate(1.02 -1.37) rotate(1.32)"/>
      <path class="cls-13" d="M83.68,54.8l-45.11-.76c2.73-4.71,2-10.87.29-17.42l45.11.76c-3.12,5.91-3.77,11.73-.29,17.42Z"/>
      <path class="cls-4" d="M37.85,23.07c1.8,2.95,3.84,7.03,5.19,12.15,2.5,9.5,1.33,17.62.31,22.1"/>
      <path class="cls-4" d="M83.98,25.26c-1.85,2.92-3.95,6.97-5.37,12.06-2.65,9.46-1.6,17.6-.66,22.1"/>
      <path class="cls-1" d="M46.87,19.93c1.77,3.25,3.77,7.74,5.06,13.39,2.4,10.49,1.14,19.5.08,24.47"/>
      <path class="cls-1" d="M75.64,21.16c-1.76,3.26-3.74,7.75-5.01,13.41-2.37,10.5-1.07,19.5,0,24.47"/>
      <line class="cls-1" x1="61.06" y1="59.58" x2="61.52" y2="19.97"/>
    </g>
  </g>
  <path class="cls-14" d="M83.95,56.77c-.25-1.45-.5-2.9-.75-4.36-.35-2.05-.74-4.05-.86-6.14-.06-.95-5.03-.35-5.89-.32-2.25.08-4.51.2-6.76.27-4.43.15-8.91-.24-13.34-.36l-9.66-.26c-1.8-.03-3.61-.13-5.41-.2-.05,0-.93,6.26-1.04,6.83-.28,1.49-.55,2.98-.83,4.47-.65,3.48-.85,6.53.39,9.91s3.16,6.5,5.41,9.13c3.25,3.8,7.5,6.5,12.15,7.26,9.77,1.61,20.42-4.16,24.98-14.38.71-1.59,1.43-3.23,1.86-4.95.65-2.55.15-4.44-.27-6.91Z"/>
  <g>
    <path class="cls-7" d="M64.62,56.74c.51-.58,1.36-1.43,2.63-2.12,2.52-1.37,4.95-1.19,5.81-1.08,1.98.25,3.38,1.06,4.23,1.57.93.55,1.64,1.13,2.12,1.58-.68.83-2.23,2.49-4.74,3.19-3.44.96-7.28-.28-10.05-3.13Z"/>
    <circle class="cls-13" cx="71.97" cy="56.69" r="2.61"/>
    <path class="cls-7" d="M43.13,56.37c.51-.58,1.36-1.43,2.63-2.12,2.52-1.37,4.95-1.19,5.81-1.08,1.98.25,3.38,1.06,4.23,1.57.93.55,1.64,1.13,2.12,1.58-.68.83-2.23,2.49-4.74,3.19-3.44.96-7.28-.28-10.05-3.13Z"/>
    <circle class="cls-13" cx="50.49" cy="56.31" r="2.61"/>
    <path class="cls-5" d="M60.85,59.24c-.13,2.32-.57,4.55-1.04,6.82-.04.21-.09.43-.06.65.11.71.9.64,1.43.68.81.05,1.63.1,2.44.16"/>
    <line class="cls-5" x1="58.27" y1="72.75" x2="65.38" y2="73.04"/>
  </g>
  <text class="cls-6" transform="translate(46.58 151.5) rotate(1.21)"><tspan x="0" y="0">5</tspan></text>
</svg>