<?xml version="1.0" encoding="UTF-8"?>
<svg id="_圖層_1" data-name="圖層 1" xmlns="http://www.w3.org/2000/svg" viewBox="0 0 112.07 61.56">
  <defs>
    <style>
      .cls-1 {
        fill: #ffe5c0;
      }
    </style>
  </defs>
  <path class="cls-1" d="M63.61,61.56H13.1c-.8,0-1.56-.32-2.12-.88L.88,50.58c-.56-.56-.88-1.33-.88-2.12v-30.3c0-1.66,1.34-3,3-3h42.85l-8.84-4.42c-.86-.43-1.47-1.25-1.62-2.2-.15-.95.16-1.92.84-2.6l5.05-5.05c.75-.75,1.83-1.05,2.85-.79l20.2,5.05c.39.1.75.27,1.07.51l19.4,14.55h24.25c1.66,0,3,1.34,3,3v29.83c0,1.63-1.3,2.96-2.93,3l-19.94.47-25,5c-.19.04-.39.06-.59.06ZM14.34,55.56h48.97l24.96-4.99c.17-.03.34-.05.52-.06l17.27-.41v-23.9h-22.25c-.65,0-1.28-.21-1.8-.6l-19.72-14.79-17.97-4.49-.91.91,16.48,8.24c1.24.62,1.9,2.02,1.58,3.37-.32,1.35-1.53,2.31-2.92,2.31H6v26.06l8.34,8.34ZM109.07,53.04h.01-.01Z"/>
  <path class="cls-1" d="M38.36,31.25H3c-1.66,0-3-1.34-3-3s1.34-3,3-3h35.36c1.66,0,3,1.34,3,3s-1.34,3-3,3Z"/>
  <path class="cls-1" d="M38.36,41.36H3c-1.66,0-3-1.34-3-3s1.34-3,3-3h35.36c1.66,0,3,1.34,3,3s-1.34,3-3,3Z"/>
  <path class="cls-1" d="M38.36,51.46H3c-1.66,0-3-1.34-3-3s1.34-3,3-3h35.36c1.66,0,3,1.34,3,3s-1.34,3-3,3Z"/>
</svg>