<?xml version="1.0" encoding="UTF-8"?>
<svg id="_圖層_1" data-name="圖層 1" xmlns="http://www.w3.org/2000/svg" viewBox="0 0 94.79 46.94">
  <defs>
    <style>
      .cls-1 {
        fill: #ffe5c0;
      }
    </style>
  </defs>
  <path class="cls-1" d="M71.77,7.75c0,18-14.59,32.58-32.58,32.58S6.61,25.75,6.61,7.75h65.17M71.77,1.14H6.61C2.96,1.14,0,4.1,0,7.75c0,21.61,17.58,39.19,39.19,39.19S78.38,29.36,78.38,7.75c0-3.65-2.96-6.61-6.61-6.61h0ZM71.77,14.36h0,0Z"/>
  <path class="cls-1" d="M80.85,6.61c.91,0,1.98.18,3.08.54,2.7.89,4.57,2.57,4.18,3.75-.23.7-1.2,1.07-2.51,1.07-.91,0-1.98-.18-3.08-.54-2.7-.89-4.57-2.57-4.18-3.75.23-.7,1.2-1.07,2.51-1.07M80.85,0h0c-5.11,0-7.89,2.89-8.78,5.6-1.63,4.95,1.81,9.93,8.38,12.09,1.73.57,3.51.87,5.15.87,5.11,0,7.89-2.89,8.78-5.6,1.63-4.95-1.81-9.93-8.38-12.09-1.73-.57-3.51-.87-5.15-.87h0Z"/>
</svg>