<?xml version="1.0" encoding="UTF-8"?>
<svg id="_圖層_1" data-name="圖層 1" xmlns="http://www.w3.org/2000/svg" viewBox="0 0 66.97 75.97">
  <defs>
    <style>
      .cls-1 {
        fill: #ffe5c0;
      }
    </style>
  </defs>
  <path class="cls-1" d="M63.24,74.23c-.08-.02-.17-.02-.25-.02-.19-.01-.36-.03-.51-.06-.62-.12-1.19-.34-1.68-.55-1.04-.42-2.02-.96-2.92-1.62-3.86-2.81-6.14-7.65-6.1-12.95.02-2.05.35-4.06,1-5.98.39-1.15.94-2.21,1.48-3.23.89-1.68,1.72-3.27,1.62-4.99-.03-.43-.32-4.21-2.79-5.95-.76-.54-1.54-.76-2.67-.76s-2.39.21-4.04.46c-.84.13-1.77.28-2.78.41-3.22.43-6.53.65-9.85.65-1.83,0-3.69-.07-5.53-.2-5.42-.39-9.92-1.02-14.27-2.81-2.28-.94-4.16-2.75-5.18-4.98-1.43-3.08-1.64-6.95-.64-11.83.15-.75.34-1.53.56-2.33.27-1,.56-1.94.87-2.83-.39.05-.81.08-1.23.08-1.53,0-2.91-.37-4.1-1.1-.57-.35-1.75-1.07-2.34-2.48C.53,8.01,3.1,3.78,6.19,2.26c1.04-.51,2.19-.76,3.44-.76,1.6,0,3.28.43,4.86,1.23,3,1.54,4.67,3.8,4.96,6.74.17,1.67.02,3.29-.12,4.85-.05.58-.11,1.16-.14,1.75-.14,2.26-.39,4.6-.6,6.48-.05.46-.12.93-.2,1.4-.24,1.46-.46,2.84.15,3.87.34.58.94.96,1.38,1.18,1.3.65,2.86.91,4.62,1.15,1.89.26,3.93.4,6.62.44.53,0,1.06.01,1.56.01,4.72,0,8.35-.38,11.27-.69,2.1-.22,3.91-.41,5.6-.41,2.63,0,4.75.49,6.86,1.58,1.55.8,6.06,3.13,7.68,7.99,1.32,3.98.12,8.04-.9,10.75-.83,2.21-1.65,3.9-2.65,5.46-.87,1.36-1.78,2.98-1.97,4.72-.15,1.33.13,2.82.79,4.32.7,1.58,1.76,3.02,2.61,4.1.96,1.22,1.98,2.4,3.04,3.52l-2.17,2.07c.18.18.35.22.35.23Z"/>
  <path class="cls-1" d="M9.63,3c1.45,0,2.92.42,4.18,1.07,2.29,1.17,3.89,2.92,4.15,5.55.21,2.12-.14,4.24-.27,6.36-.13,2.14-.36,4.28-.59,6.41-.22,2.02-.97,4.3.15,6.19.46.77,1.2,1.36,2,1.76,1.57.79,3.37,1.06,5.09,1.29,2.25.31,4.53.42,6.8.46.54,0,1.08.01,1.59.01,8.14,0,12.94-1.11,16.87-1.11,2.19,0,4.1.34,6.17,1.41,1.24.64,5.5,2.77,6.95,7.13,1.07,3.22.28,6.67-.88,9.75-.69,1.84-1.45,3.53-2.51,5.19-1.04,1.63-1.98,3.41-2.2,5.36-.19,1.74.21,3.5.92,5.1.71,1.6,1.72,3.04,2.8,4.41.99,1.26,2.03,2.47,3.14,3.63-.28-.3-.86-.23-1.22-.3-.48-.09-.96-.29-1.41-.47-.92-.37-1.79-.86-2.59-1.44-3.67-2.67-5.52-7.26-5.48-11.72.02-1.87.32-3.74.92-5.51,1-2.97,3.37-5.49,3.18-8.79-.03-.54-.35-4.92-3.43-7.08-1.08-.76-2.2-1.03-3.53-1.03-1.79,0-3.98.48-7.03.89-3.2.43-6.42.64-9.65.64-1.81,0-3.62-.07-5.43-.2-4.71-.34-9.41-.88-13.81-2.7-1.91-.79-3.52-2.33-4.38-4.22-1.57-3.36-1.26-7.37-.54-10.9.15-.75.33-1.49.54-2.23.51-1.85,1.13-3.69,1.91-5.44-.37.16-1.9.79-3.72.79-1.07,0-2.23-.22-3.32-.88-.5-.3-1.33-.81-1.74-1.78-.96-2.3,1.08-5.75,3.61-6.99.87-.43,1.82-.61,2.77-.61M9.63,0c-1.48,0-2.85.31-4.1.92C1.77,2.76-1.19,7.79.47,11.76c.78,1.86,2.29,2.78,2.93,3.18,1.22.74,2.58,1.18,4.06,1.29-.09.29-.17.59-.25.89-.22.82-.42,1.63-.58,2.42-1.07,5.21-.82,9.38.76,12.77,1.16,2.55,3.33,4.64,5.96,5.72,4.54,1.87,9.18,2.52,14.74,2.92,1.88.13,3.78.2,5.64.2,3.38,0,6.77-.22,10.05-.67,1.03-.14,1.96-.28,2.81-.42,1.59-.25,2.85-.45,3.81-.45s1.38.19,1.81.48c1.93,1.36,2.15,4.67,2.16,4.81.08,1.31-.63,2.65-1.45,4.21-.56,1.07-1.15,2.18-1.58,3.45-.69,2.06-1.06,4.23-1.08,6.44-.05,5.78,2.46,11.08,6.72,14.17,1.01.73,2.1,1.34,3.24,1.79.55.22,1.21.49,1.98.63.19.03.36.05.5.07.4.19.84.28,1.27.28.74,0,1.49-.27,2.07-.83,1.2-1.14,1.25-3.04.1-4.24-1.03-1.08-2.02-2.23-2.95-3.41-.79-1.01-1.78-2.36-2.42-3.78-.56-1.26-.79-2.48-.68-3.55.16-1.43.97-2.87,1.74-4.08,1.05-1.66,1.91-3.43,2.79-5.74,1.1-2.92,2.39-7.32.92-11.75-1.2-3.61-4.01-6.58-8.35-8.82l-.06-.03c-2.34-1.21-4.67-1.75-7.55-1.75-1.77,0-3.62.2-5.76.42-2.88.3-6.47.68-11.11.68-.5,0-1.01,0-1.54-.01-2.62-.05-4.61-.18-6.44-.43-1.62-.22-3.05-.45-4.15-1-.36-.18-.65-.41-.77-.61-.33-.55-.14-1.73.04-2.86.08-.48.16-.97.21-1.48.25-2.32.47-4.41.6-6.55.04-.57.09-1.13.14-1.7.15-1.64.3-3.33.12-5.14-.24-2.39-1.43-5.7-5.77-7.92-1.78-.91-3.7-1.4-5.54-1.4h0Z"/>
</svg>