<?xml version="1.0" encoding="UTF-8"?>
<svg id="_圖層_1" data-name="圖層 1" xmlns="http://www.w3.org/2000/svg" xmlns:xlink="http://www.w3.org/1999/xlink" viewBox="0 0 68.13 108.52">
  <defs>
    <style>
      .cls-1 {
        filter: url(#drop-shadow-65);
      }

      .cls-2 {
        clip-path: url(#clippath-1);
      }

      .cls-3 {
        opacity: .42;
      }

      .cls-4 {
        font-family: Verdana-Bold, Verdana;
        font-size: 22.24px;
        font-weight: 700;
      }

      .cls-4, .cls-5 {
        fill: #ffe5c0;
      }

      .cls-6 {
        opacity: .48;
      }

      .cls-7 {
        clip-path: url(#clippath);
      }
    </style>
    <filter id="drop-shadow-65" x="1.76" y="0" width="66.37" height="108.52" filterUnits="userSpaceOnUse">
      <feOffset dx="1.23" dy="1.23"/>
      <feGaussianBlur result="blur" stdDeviation=".92"/>
      <feFlood flood-color="#000" flood-opacity=".5"/>
      <feComposite in2="blur" operator="in"/>
      <feComposite in="SourceGraphic"/>
    </filter>
    <clipPath id="clippath">
      <path class="cls-5" d="M40.81,32.69c-2.64.27-5.28.53-7.92.8s-5.48.31-8.22.11-5.29-.38-7.94-.57c-4.31,5.54-11.31,16.46-10.55,29.71.55,9.65,5.18,19.78,8.04,26.04.65,1.42,1.28,2.72,1.85,3.85.91,1.8,2.72,2.91,4.68,2.88l6.68-.09,4.42-.06,6.68-.09c1.97-.03,3.75-1.21,4.62-3.05.54-1.14,1.12-2.43,1.72-3.86,2.68-6.33,7.02-16.59,7.31-26.25.39-13.27-6.91-23.99-11.37-29.4Z"/>
    </clipPath>
    <clipPath id="clippath-1">
      <path class="cls-5" d="M7.16,38.73c-.25-.51-.21-1.15-.15-1.72.31-2.99,1.19-7.26,2.18-10.54,1.83-6.32,3.43-11.22,8.91-14.13,4.03-2.12,8.48-2.22,12.96-2.24,5.59.04,10.6,2.73,13.56,7.39,1.86,2.72,2.33,5.71,3.11,8.8.94,3.8,1.73,8.59,1.95,12.85.27,2.44-1.27,2.73-3.07,3.81-1.39.85-2.35,1.67-3.49,3.01-2.09,2.46-3.54,5.96-3.81,9.27-.16,1.34.16,2.35-.93,2.72-.65.19-1.36.14-2.06.13-1.27,0-2.85-.11-3-1.65-.08-5.75.3-11.56.38-17.32.15-2.59-1.12-2.82-3.5-2.8-1.39-.03-2.8-.08-4.18-.11-1.9-.08-2.5.91-2.48,2.69-.21,5.85-.21,11.73-.53,17.57-.25,1.9-2.13,1.68-3.74,1.61-1.34-.04-2.25-.39-2.14-1.95.02-1.06,0-2.1-.15-3.34-.23-1.94-.82-3.96-1.63-5.72-1.04-2.46-2.79-4.41-4.92-6.02-.66-.49-1.38-.93-2.09-1.31-.47-.26-.93-.54-1.17-.98l-.02-.03Z"/>
    </clipPath>
  </defs>
  <g class="cls-1">
    <g>
      <path class="cls-5" d="M40.81,32.69c-2.64.27-5.28.53-7.92.8s-5.48.31-8.22.11-5.29-.38-7.94-.57c-4.31,5.54-11.31,16.46-10.55,29.71.55,9.65,5.18,19.78,8.04,26.04.65,1.42,1.28,2.72,1.85,3.85.91,1.8,2.72,2.91,4.68,2.88l6.68-.09,4.42-.06,6.68-.09c1.97-.03,3.75-1.21,4.62-3.05.54-1.14,1.12-2.43,1.72-3.86,2.68-6.33,7.02-16.59,7.31-26.25.39-13.27-6.91-23.99-11.37-29.4Z"/>
      <g class="cls-7">
        <g class="cls-6">
          <path class="cls-5" d="M35.24,32.13c2.24,10.76,2.11,19.81,1.46,26.31-.93,9.45-1.54,15.59-6.31,19.84-7.99,7.12-21.17,3.1-23,2.52-.1,2.54-.32,14.25,7.98,21.83,10.57,9.65,27.68,5.99,37.29-.52,19.18-12.99,15.36-41.98,14.71-46.28-.39-2.6-1.56-15.88-10.22-25.09-2.04-2.16-4.06-3.66-6.64-4.3-7.45-1.84-14.28,4.71-15.28,5.7Z"/>
        </g>
        <rect class="cls-5" x="1.78" y="79.13" width="56.58" height="3.19" transform="translate(-1.12 .43) rotate(-.8)"/>
        <rect class="cls-5" x="1.87" y="84.71" width="56.58" height="3.98" transform="translate(-1.21 .43) rotate(-.8)"/>
        <circle class="cls-5" cx="28.76" cy="25.15" r="25.15"/>
      </g>
    </g>
    <rect class="cls-5" x="14.94" y="93.43" width="29.62" height="4.39" rx="2.19" ry="2.19" transform="translate(-1.33 .42) rotate(-.8)"/>
    <g class="cls-3">
      <path class="cls-5" d="M11.2,70.63c-.49,0-.93-.33-1.03-.82-.64-2.95-.95-5.97-.94-8.98.02-5.31,1.05-10.55,3.05-15.57.21-.54.82-.8,1.36-.58.53.21.8.82.58,1.36-1.91,4.77-2.88,9.75-2.9,14.8-.01,2.85.29,5.72.9,8.53.12.56-.24,1.12-.8,1.24-.07.02-.14.02-.21.02Z"/>
    </g>
    <path class="cls-5" d="M13.03,37.97c1.44.56,2.67.95,3.57,1.21,2.89.84,14.64,4.06,26.18-1.23,1.07-.49,1.9-.94,2.38-1.22"/>
  </g>
  <g>
    <path class="cls-5" d="M7.16,38.73c-.25-.51-.21-1.15-.15-1.72.31-2.99,1.19-7.26,2.18-10.54,1.83-6.32,3.43-11.22,8.91-14.13,4.03-2.12,8.48-2.22,12.96-2.24,5.59.04,10.6,2.73,13.56,7.39,1.86,2.72,2.33,5.71,3.11,8.8.94,3.8,1.73,8.59,1.95,12.85.27,2.44-1.27,2.73-3.07,3.81-1.39.85-2.35,1.67-3.49,3.01-2.09,2.46-3.54,5.96-3.81,9.27-.16,1.34.16,2.35-.93,2.72-.65.19-1.36.14-2.06.13-1.27,0-2.85-.11-3-1.65-.08-5.75.3-11.56.38-17.32.15-2.59-1.12-2.82-3.5-2.8-1.39-.03-2.8-.08-4.18-.11-1.9-.08-2.5.91-2.48,2.69-.21,5.85-.21,11.73-.53,17.57-.25,1.9-2.13,1.68-3.74,1.61-1.34-.04-2.25-.39-2.14-1.95.02-1.06,0-2.1-.15-3.34-.23-1.94-.82-3.96-1.63-5.72-1.04-2.46-2.79-4.41-4.92-6.02-.66-.49-1.38-.93-2.09-1.31-.47-.26-.93-.54-1.17-.98l-.02-.03Z"/>
    <g class="cls-2">
      <rect class="cls-5" x="26.33" y="5.61" width="1.6" height="52.88" transform="translate(-5.2 58.86) rotate(-89.43)"/>
      <rect class="cls-5" x="26.21" y="9.51" width="1.6" height="52.88" transform="translate(-9.21 62.61) rotate(-89.43)"/>
      <rect class="cls-5" x="26.1" y="13.41" width="1.6" height="52.88" transform="translate(-13.22 66.35) rotate(-89.43)"/>
      <rect class="cls-5" x="25.99" y="17.31" width="1.6" height="52.88" transform="translate(-17.24 70.1) rotate(-89.43)"/>
      <rect class="cls-5" x="25.87" y="21.22" width="1.6" height="52.88" transform="translate(-21.25 73.85) rotate(-89.43)"/>
      <rect class="cls-5" x="25.76" y="25.12" width="1.6" height="52.88" transform="translate(-25.26 77.6) rotate(-89.43)"/>
      <rect class="cls-5" x="25.65" y="29.02" width="1.6" height="52.88" transform="translate(-29.27 81.35) rotate(-89.43)"/>
      <rect class="cls-5" x="26.44" y="1.71" width="1.6" height="52.88" transform="translate(-1.19 55.11) rotate(-89.43)"/>
      <rect class="cls-5" x="26.55" y="-2.19" width="1.6" height="52.88" transform="translate(2.83 51.36) rotate(-89.43)"/>
      <rect class="cls-5" x="26.67" y="-6.09" width="1.6" height="52.88" transform="translate(6.84 47.61) rotate(-89.43)"/>
      <path class="cls-5" d="M39.67,25.84l-23.26-.09c1.38-2.45.96-5.62.03-8.98l23.26.09c-1.57,3.06-1.86,6.07-.03,8.98Z"/>
      <path class="cls-5" d="M15.84,9.79c.95,1.51,2.02,3.6,2.75,6.22,1.35,4.88.8,9.07.31,11.39"/>
      <path class="cls-5" d="M39.63,10.61c-.93,1.52-1.99,3.62-2.69,6.25-1.3,4.89-.71,9.08-.19,11.39"/>
      <path class="cls-5" d="M20.47,8.11c.93,1.66,1.99,3.96,2.7,6.87,1.31,5.39.72,10.04.2,12.61"/>
      <path class="cls-5" d="M35.31,8.56c-.89,1.69-1.88,4.02-2.49,6.94-1.15,5.43-.42,10.06.17,12.61"/>
      <line class="cls-5" x1="28.04" y1="28.45" x2="28.02" y2="8.04"/>
    </g>
  </g>
  <path class="cls-5" d="M39.82,26.85c-.14-.75-.28-1.49-.41-2.24-.19-1.05-.41-2.08-.49-3.16-.04-.49-2.6-.14-3.04-.12-1.16.06-2.32.13-3.48.18-2.28.11-4.59-.07-6.88-.1l-4.98-.07c-.93,0-1.86-.04-2.79-.07-.03,0-.44,3.23-.49,3.53-.13.77-.27,1.54-.4,2.31-.31,1.8-.4,3.37.27,5.1s1.67,3.33,2.85,4.67c1.7,1.94,3.91,3.3,6.31,3.66,5.05.76,10.5-2.28,12.78-7.58.36-.83.71-1.67.93-2.56.32-1.32.05-2.29-.18-3.56Z"/>
  <g>
    <path class="cls-5" d="M29.86,26.96c.26-.3.69-.75,1.34-1.11,1.29-.73,2.54-.64,2.98-.59,1.02.12,1.75.53,2.19.78.48.28.85.57,1.1.8-.34.43-1.13,1.3-2.42,1.67-1.77.52-3.76-.1-5.2-1.55Z"/>
    <circle class="cls-5" cx="33.65" cy="26.89" r="1.35"/>
    <path class="cls-5" d="M18.78,26.91c.26-.3.69-.75,1.34-1.11,1.29-.73,2.54-.64,2.98-.59,1.02.12,1.75.53,2.19.78.48.28.85.57,1.1.8-.34.43-1.13,1.3-2.42,1.67-1.77.52-3.76-.1-5.2-1.55Z"/>
    <circle class="cls-5" cx="22.58" cy="26.84" r="1.35"/>
    <path class="cls-5" d="M27.94,28.28c-.05,1.19-.26,2.35-.49,3.52-.02.11-.04.22-.02.33.06.36.47.32.74.34.42.02.84.04,1.26.07"/>
    <line class="cls-5" x1="26.69" y1="35.26" x2="30.36" y2="35.36"/>
  </g>
  <text class="cls-4" transform="translate(21.17 75.88) rotate(.46)"><tspan x="0" y="0">5</tspan></text>
</svg>