<?xml version="1.0" encoding="UTF-8"?>
<svg id="_圖層_1" data-name="圖層 1" xmlns="http://www.w3.org/2000/svg" viewBox="0 0 50.35 74.09">
  <defs>
    <style>
      .cls-1 {
        fill: #ffe5c0;
      }
    </style>
  </defs>
  <path class="cls-1" d="M13.21,74.09c-1.38,0-2.66-.87-3.13-2.24-.59-1.73.34-3.6,2.07-4.19,5.74-1.94,14.01-5.93,20.85-13.89,4.07-4.73,12.52-14.58,10.4-27.02-.03-.17-3.03-16.87-16.01-19.62-5.03-1.07-14.64-1.03-18.78,5.9-3.52,5.9-2.21,14.58,2.71,17.86,2.6,1.73,7.69,2.95,10.9.23,1.88-1.59,2.42-4.01,2.57-5.31.22-1.81,1.86-3.1,3.67-2.89,1.81.22,3.1,1.86,2.89,3.67-.27,2.26-1.26,6.51-4.86,9.56-5.54,4.7-13.67,3.67-18.83.23C-.22,31.12-2.42,18.62,2.95,9.63,8.24.77,19.73-1.26,28.77.66c17.32,3.67,21,24.1,21.15,24.97,2.65,15.51-7.55,27.37-11.9,32.44-6.19,7.2-14.4,12.68-23.75,15.84-.35.12-.71.18-1.06.18Z"/>
</svg>